# 3ds Max Wavefront OBJ Exporter v0.97b - (c)2007 guruware
# File Created: 01.07.2011 16:35:59

mtllib AAESFERA_5.mtl

#
# object TRY2
#

v  0.0000 -0.2327 11.6129
v  0.0000 6.0456 9.7694
v  -3.3943 5.0490 9.7694
v  -5.7110 2.3754 9.7694
v  -6.2144 -1.1264 9.7694
v  -4.7448 -4.3443 9.7694
v  -1.7688 -6.2570 9.7694
v  1.7689 -6.2570 9.7694
v  4.7449 -4.3443 9.7694
v  6.2146 -1.1264 9.7694
v  5.7111 2.3754 9.7694
v  3.3945 5.0490 9.7694
v  0.0000 10.3307 4.8242
v  -5.7110 8.6537 4.8242
v  -9.6088 4.1554 4.8242
v  -10.4559 -1.7362 4.8242
v  -7.9834 -7.1505 4.8242
v  -2.9760 -10.3685 4.8242
v  2.9762 -10.3685 4.8242
v  7.9834 -7.1505 4.8242
v  10.4561 -1.7362 4.8242
v  9.6089 4.1554 4.8242
v  5.7111 8.6537 4.8242
v  0.0000 11.2619 -1.6527
v  -6.2144 9.4371 -1.6527
v  -10.4559 4.5423 -1.6527
v  -11.3777 -1.8687 -1.6527
v  -8.6871 -7.7603 -1.6527
v  -3.2384 -11.2619 -1.6527
v  3.2384 -11.2619 -1.6527
v  8.6871 -7.7603 -1.6527
v  11.3777 -1.8687 -1.6527
v  10.4561 4.5423 -1.6527
v  6.2146 9.4371 -1.6527
v  0.0000 8.5436 -7.6049
v  -4.7448 7.1505 -7.6049
v  -7.9834 3.4130 -7.6049
v  -8.6871 -1.4818 -7.6049
v  -6.6328 -5.9801 -7.6049
v  -2.4725 -8.6537 -7.6049
v  2.4727 -8.6537 -7.6049
v  6.6329 -5.9801 -7.6049
v  8.6871 -1.4818 -7.6049
v  7.9834 3.4130 -7.6049
v  4.7449 7.1505 -7.6049
v  0.0000 -0.2327 -11.6129
# 46 vertices

vn 0.0000 0.0000 1.0000
vn 0.0000 0.5746 0.8184
vn -0.3112 0.4836 0.8181
vn 0.0000 0.0000 1.0000
vn -0.3112 0.4836 0.8181
vn -0.5232 0.2387 0.8181
vn 0.0000 0.0000 1.0000
vn -0.5232 0.2387 0.8181
vn -0.5691 -0.0816 0.8182
vn 0.0000 0.0000 1.0000
vn -0.5691 -0.0816 0.8182
vn -0.4348 -0.3761 0.8182
vn 0.0000 0.0000 1.0000
vn -0.4348 -0.3761 0.8182
vn -0.1617 -0.5516 0.8183
vn 0.0000 0.0000 1.0000
vn -0.1617 -0.5516 0.8183
vn 0.1617 -0.5516 0.8183
vn 0.0000 0.0000 1.0000
vn 0.1617 -0.5516 0.8183
vn 0.4348 -0.3761 0.8182
vn 0.0000 0.0000 1.0000
vn 0.4348 -0.3761 0.8182
vn 0.5691 -0.0816 0.8182
vn 0.0000 0.0000 1.0000
vn 0.5691 -0.0816 0.8182
vn 0.5232 0.2387 0.8181
vn 0.0000 0.0000 1.0000
vn 0.5232 0.2387 0.8181
vn 0.3112 0.4836 0.8181
vn 0.0000 0.0000 1.0000
vn 0.3112 0.4836 0.8181
vn 0.0000 0.5746 0.8184
vn 0.0000 0.5746 0.8184
vn 0.0000 0.9177 0.3973
vn -0.4959 0.7721 0.3974
vn 0.0000 0.5746 0.8184
vn -0.4959 0.7721 0.3974
vn -0.3112 0.4836 0.8181
vn -0.3112 0.4836 0.8181
vn -0.4959 0.7721 0.3974
vn -0.8346 0.3815 0.3974
vn -0.3112 0.4836 0.8181
vn -0.8346 0.3815 0.3974
vn -0.5232 0.2387 0.8181
vn -0.5232 0.2387 0.8181
vn -0.8346 0.3815 0.3974
vn -0.9083 -0.1305 0.3976
vn -0.5232 0.2387 0.8181
vn -0.9083 -0.1305 0.3976
vn -0.5691 -0.0816 0.8182
vn -0.5691 -0.0816 0.8182
vn -0.9083 -0.1305 0.3976
vn -0.6930 -0.6014 0.3975
vn -0.5691 -0.0816 0.8182
vn -0.6930 -0.6014 0.3975
vn -0.4348 -0.3761 0.8182
vn -0.4348 -0.3761 0.8182
vn -0.6930 -0.6014 0.3975
vn -0.2579 -0.8806 0.3975
vn -0.4348 -0.3761 0.8182
vn -0.2579 -0.8806 0.3975
vn -0.1617 -0.5516 0.8183
vn -0.1617 -0.5516 0.8183
vn -0.2579 -0.8806 0.3975
vn 0.2579 -0.8806 0.3975
vn -0.1617 -0.5516 0.8183
vn 0.2579 -0.8806 0.3975
vn 0.1617 -0.5516 0.8183
vn 0.1617 -0.5516 0.8183
vn 0.2579 -0.8806 0.3975
vn 0.6930 -0.6014 0.3975
vn 0.1617 -0.5516 0.8183
vn 0.6930 -0.6014 0.3975
vn 0.4348 -0.3761 0.8182
vn 0.4348 -0.3761 0.8182
vn 0.6930 -0.6014 0.3975
vn 0.9083 -0.1305 0.3976
vn 0.4348 -0.3761 0.8182
vn 0.9083 -0.1305 0.3976
vn 0.5691 -0.0816 0.8182
vn 0.5691 -0.0816 0.8182
vn 0.9083 -0.1305 0.3976
vn 0.8346 0.3815 0.3974
vn 0.5691 -0.0816 0.8182
vn 0.8346 0.3815 0.3974
vn 0.5232 0.2387 0.8181
vn 0.5232 0.2387 0.8181
vn 0.8346 0.3815 0.3974
vn 0.4959 0.7721 0.3974
vn 0.5232 0.2387 0.8181
vn 0.4959 0.7721 0.3974
vn 0.3112 0.4836 0.8181
vn 0.3112 0.4836 0.8181
vn 0.4959 0.7721 0.3974
vn 0.0000 0.9177 0.3973
vn 0.3112 0.4836 0.8181
vn 0.0000 0.9177 0.3973
vn 0.0000 0.5746 0.8184
vn 0.0000 0.9177 0.3973
vn 0.0000 0.9908 -0.1357
vn -0.5358 0.8334 -0.1357
vn 0.0000 0.9177 0.3973
vn -0.5358 0.8334 -0.1357
vn -0.4959 0.7721 0.3974
vn -0.4959 0.7721 0.3974
vn -0.5358 0.8334 -0.1357
vn -0.9015 0.4111 -0.1356
vn -0.4959 0.7721 0.3974
vn -0.9015 0.4111 -0.1356
vn -0.8346 0.3815 0.3974
vn -0.8346 0.3815 0.3974
vn -0.9015 0.4111 -0.1356
vn -0.9807 -0.1411 -0.1356
vn -0.8346 0.3815 0.3974
vn -0.9807 -0.1411 -0.1356
vn -0.9083 -0.1305 0.3976
vn -0.9083 -0.1305 0.3976
vn -0.9807 -0.1411 -0.1356
vn -0.7491 -0.6484 -0.1357
vn -0.9083 -0.1305 0.3976
vn -0.7491 -0.6484 -0.1357
vn -0.6930 -0.6014 0.3975
vn -0.6930 -0.6014 0.3975
vn -0.7491 -0.6484 -0.1357
vn -0.2792 -0.9506 -0.1357
vn -0.6930 -0.6014 0.3975
vn -0.2792 -0.9506 -0.1357
vn -0.2579 -0.8806 0.3975
vn -0.2579 -0.8806 0.3975
vn -0.2792 -0.9506 -0.1357
vn 0.2792 -0.9506 -0.1357
vn -0.2579 -0.8806 0.3975
vn 0.2792 -0.9506 -0.1357
vn 0.2579 -0.8806 0.3975
vn 0.2579 -0.8806 0.3975
vn 0.2792 -0.9506 -0.1357
vn 0.7491 -0.6484 -0.1357
vn 0.2579 -0.8806 0.3975
vn 0.7491 -0.6484 -0.1357
vn 0.6930 -0.6014 0.3975
vn 0.6930 -0.6014 0.3975
vn 0.7491 -0.6484 -0.1357
vn 0.9807 -0.1411 -0.1356
vn 0.6930 -0.6014 0.3975
vn 0.9807 -0.1411 -0.1356
vn 0.9083 -0.1305 0.3976
vn 0.9083 -0.1305 0.3976
vn 0.9807 -0.1411 -0.1356
vn 0.9015 0.4111 -0.1356
vn 0.9083 -0.1305 0.3976
vn 0.9015 0.4111 -0.1356
vn 0.8346 0.3815 0.3974
vn 0.8346 0.3815 0.3974
vn 0.9015 0.4111 -0.1356
vn 0.5358 0.8334 -0.1357
vn 0.8346 0.3815 0.3974
vn 0.5358 0.8334 -0.1357
vn 0.4959 0.7721 0.3974
vn 0.4959 0.7721 0.3974
vn 0.5358 0.8334 -0.1357
vn 0.0000 0.9908 -0.1357
vn 0.4959 0.7721 0.3974
vn 0.0000 0.9908 -0.1357
vn 0.0000 0.9177 0.3973
vn 0.0000 0.9908 -0.1357
vn 0.0000 0.7361 -0.6768
vn -0.3981 0.6193 -0.6767
vn 0.0000 0.9908 -0.1357
vn -0.3981 0.6193 -0.6767
vn -0.5358 0.8334 -0.1357
vn -0.5358 0.8334 -0.1357
vn -0.3981 0.6193 -0.6767
vn -0.6697 0.3059 -0.6767
vn -0.5358 0.8334 -0.1357
vn -0.6697 0.3059 -0.6767
vn -0.9015 0.4111 -0.1356
vn -0.9015 0.4111 -0.1356
vn -0.6697 0.3059 -0.6767
vn -0.7282 -0.1046 -0.6773
vn -0.9015 0.4111 -0.1356
vn -0.7282 -0.1046 -0.6773
vn -0.9807 -0.1411 -0.1356
vn -0.9807 -0.1411 -0.1356
vn -0.7282 -0.1046 -0.6773
vn -0.5567 -0.4820 -0.6766
vn -0.9807 -0.1411 -0.1356
vn -0.5567 -0.4820 -0.6766
vn -0.7491 -0.6484 -0.1357
vn -0.7491 -0.6484 -0.1357
vn -0.5567 -0.4820 -0.6766
vn -0.2075 -0.7063 -0.6768
vn -0.7491 -0.6484 -0.1357
vn -0.2075 -0.7063 -0.6768
vn -0.2792 -0.9506 -0.1357
vn -0.2792 -0.9506 -0.1357
vn -0.2075 -0.7063 -0.6768
vn 0.2075 -0.7063 -0.6768
vn -0.2792 -0.9506 -0.1357
vn 0.2075 -0.7063 -0.6768
vn 0.2792 -0.9506 -0.1357
vn 0.2792 -0.9506 -0.1357
vn 0.2075 -0.7063 -0.6768
vn 0.5567 -0.4820 -0.6766
vn 0.2792 -0.9506 -0.1357
vn 0.5567 -0.4820 -0.6766
vn 0.7491 -0.6484 -0.1357
vn 0.7491 -0.6484 -0.1357
vn 0.5567 -0.4820 -0.6766
vn 0.7282 -0.1046 -0.6773
vn 0.7491 -0.6484 -0.1357
vn 0.7282 -0.1046 -0.6773
vn 0.9807 -0.1411 -0.1356
vn 0.9807 -0.1411 -0.1356
vn 0.7282 -0.1046 -0.6773
vn 0.6697 0.3059 -0.6767
vn 0.9807 -0.1411 -0.1356
vn 0.6697 0.3059 -0.6767
vn 0.9015 0.4111 -0.1356
vn 0.9015 0.4111 -0.1356
vn 0.6697 0.3059 -0.6767
vn 0.3981 0.6193 -0.6767
vn 0.9015 0.4111 -0.1356
vn 0.3981 0.6193 -0.6767
vn 0.5358 0.8334 -0.1357
vn 0.5358 0.8334 -0.1357
vn 0.3981 0.6193 -0.6767
vn 0.0000 0.7361 -0.6768
vn 0.5358 0.8334 -0.1357
vn 0.0000 0.7361 -0.6768
vn 0.0000 0.9908 -0.1357
vn 0.0000 0.0000 -1.0000
vn -0.3981 0.6193 -0.6767
vn 0.0000 0.7361 -0.6768
vn 0.0000 0.0000 -1.0000
vn -0.6697 0.3059 -0.6767
vn -0.3981 0.6193 -0.6767
vn 0.0000 0.0000 -1.0000
vn -0.7282 -0.1046 -0.6773
vn -0.6697 0.3059 -0.6767
vn 0.0000 0.0000 -1.0000
vn -0.5567 -0.4820 -0.6766
vn -0.7282 -0.1046 -0.6773
vn 0.0000 0.0000 -1.0000
vn -0.2075 -0.7063 -0.6768
vn -0.5567 -0.4820 -0.6766
vn 0.0000 0.0000 -1.0000
vn 0.2075 -0.7063 -0.6768
vn -0.2075 -0.7063 -0.6768
vn 0.0000 0.0000 -1.0000
vn 0.5567 -0.4820 -0.6766
vn 0.2075 -0.7063 -0.6768
vn 0.0000 0.0000 -1.0000
vn 0.7282 -0.1046 -0.6773
vn 0.5567 -0.4820 -0.6766
vn 0.0000 0.0000 -1.0000
vn 0.6697 0.3059 -0.6767
vn 0.7282 -0.1046 -0.6773
vn 0.0000 0.0000 -1.0000
vn 0.3981 0.6193 -0.6767
vn 0.6697 0.3059 -0.6767
vn 0.0000 0.0000 -1.0000
vn 0.0000 0.7361 -0.6768
vn 0.3981 0.6193 -0.6767
# 264 vertex normals

vt 0.5000 0.9995 0.0204
vt 1.0000 0.9202 0.5308
vt 0.0950 0.9202 0.5359
vt 0.1878 0.9202 0.5479
vt 0.2783 0.9202 0.5601
vt 0.3672 0.9202 0.5680
vt 0.4557 0.9202 0.5713
vt 0.5443 0.9202 0.5713
vt 0.6328 0.9202 0.5680
vt 0.7217 0.9202 0.5601
vt 0.8122 0.9202 0.5479
vt 0.9050 0.9202 0.5359
vt 1.0000 0.7075 0.9071
vt 0.0936 0.7075 0.9132
vt 0.1856 0.7075 0.9272
vt 0.2759 0.7075 0.9399
vt 0.3654 0.7075 0.9464
vt 0.4551 0.7075 0.9479
vt 0.5449 0.7075 0.9479
vt 0.6346 0.7075 0.9464
vt 0.7241 0.7075 0.9400
vt 0.8144 0.7075 0.9272
vt 0.9064 0.7075 0.9132
vt 1.0000 0.4289 0.9888
vt 0.0934 0.4289 0.9952
vt 0.1854 0.4289 1.0096
vt 0.2756 0.4289 1.0225
vt 0.3652 0.4289 1.0286
vt 0.4550 0.4289 1.0297
vt 0.5450 0.4289 1.0297
vt 0.6348 0.4289 1.0286
vt 0.7244 0.4289 1.0225
vt 0.8146 0.4289 1.0096
vt 0.9066 0.4289 0.9952
vt 1.0000 0.1729 0.7502
vt 0.0940 0.1729 0.7559
vt 0.1863 0.1729 0.7690
vt 0.2766 0.1729 0.7815
vt 0.3660 0.1729 0.7886
vt 0.4553 0.1729 0.7908
vt 0.5447 0.1729 0.7908
vt 0.6340 0.1729 0.7886
vt 0.7234 0.1729 0.7815
vt 0.8137 0.1729 0.7690
vt 0.9060 0.1729 0.7559
vt 0.5000 0.0005 0.0204
vt -0.0000 0.9202 0.5308
vt -0.0000 0.9202 0.5308
vt -0.0000 0.7075 0.9071
vt -0.0000 0.9202 0.5308
vt -0.0000 0.7075 0.9071
vt -0.0000 0.4289 0.9888
vt -0.0000 0.7075 0.9071
vt -0.0000 0.4289 0.9888
vt -0.0000 0.1729 0.7502
vt -0.0000 0.4289 0.9888
vt -0.0000 0.1729 0.7502
# 57 texture coords

g TRY2
usemtl _TRY2_barraconesglobal1
f 1/1/1 2/47/2 3/3/3 
f 1/1/4 3/3/5 4/4/6 
f 1/1/7 4/4/8 5/5/9 
f 1/1/10 5/5/11 6/6/12 
f 1/1/13 6/6/14 7/7/15 
f 1/1/16 7/7/17 8/8/18 
f 1/1/19 8/8/20 9/9/21 
f 1/1/22 9/9/23 10/10/24 
f 1/1/25 10/10/26 11/11/27 
f 1/1/28 11/11/29 12/12/30 
f 1/1/31 12/12/32 2/2/33 
f 2/48/34 13/49/35 14/14/36 
f 2/50/37 14/14/38 3/3/39 
f 3/3/40 14/14/41 15/15/42 
f 3/3/43 15/15/44 4/4/45 
f 4/4/46 15/15/47 16/16/48 
f 4/4/49 16/16/50 5/5/51 
f 5/5/52 16/16/53 17/17/54 
f 5/5/55 17/17/56 6/6/57 
f 6/6/58 17/17/59 18/18/60 
f 6/6/61 18/18/62 7/7/63 
f 7/7/64 18/18/65 19/19/66 
f 7/7/67 19/19/68 8/8/69 
f 8/8/70 19/19/71 20/20/72 
f 8/8/73 20/20/74 9/9/75 
f 9/9/76 20/20/77 21/21/78 
f 9/9/79 21/21/80 10/10/81 
f 10/10/82 21/21/83 22/22/84 
f 10/10/85 22/22/86 11/11/87 
f 11/11/88 22/22/89 23/23/90 
f 11/11/91 23/23/92 12/12/93 
f 12/12/94 23/23/95 13/13/96 
f 12/12/97 13/13/98 2/2/99 
f 13/51/100 24/52/101 25/25/102 
f 13/53/103 25/25/104 14/14/105 
f 14/14/106 25/25/107 26/26/108 
f 14/14/109 26/26/110 15/15/111 
f 15/15/112 26/26/113 27/27/114 
f 15/15/115 27/27/116 16/16/117 
f 16/16/118 27/27/119 28/28/120 
f 16/16/121 28/28/122 17/17/123 
f 17/17/124 28/28/125 29/29/126 
f 17/17/127 29/29/128 18/18/129 
f 18/18/130 29/29/131 30/30/132 
f 18/18/133 30/30/134 19/19/135 
f 19/19/136 30/30/137 31/31/138 
f 19/19/139 31/31/140 20/20/141 
f 20/20/142 31/31/143 32/32/144 
f 20/20/145 32/32/146 21/21/147 
f 21/21/148 32/32/149 33/33/150 
f 21/21/151 33/33/152 22/22/153 
f 22/22/154 33/33/155 34/34/156 
f 22/22/157 34/34/158 23/23/159 
f 23/23/160 34/34/161 24/24/162 
f 23/23/163 24/24/164 13/13/165 
f 24/54/166 35/55/167 36/36/168 
f 24/56/169 36/36/170 25/25/171 
f 25/25/172 36/36/173 37/37/174 
f 25/25/175 37/37/176 26/26/177 
f 26/26/178 37/37/179 38/38/180 
f 26/26/181 38/38/182 27/27/183 
f 27/27/184 38/38/185 39/39/186 
f 27/27/187 39/39/188 28/28/189 
f 28/28/190 39/39/191 40/40/192 
f 28/28/193 40/40/194 29/29/195 
f 29/29/196 40/40/197 41/41/198 
f 29/29/199 41/41/200 30/30/201 
f 30/30/202 41/41/203 42/42/204 
f 30/30/205 42/42/206 31/31/207 
f 31/31/208 42/42/209 43/43/210 
f 31/31/211 43/43/212 32/32/213 
f 32/32/214 43/43/215 44/44/216 
f 32/32/217 44/44/218 33/33/219 
f 33/33/220 44/44/221 45/45/222 
f 33/33/223 45/45/224 34/34/225 
f 34/34/226 45/45/227 35/35/228 
f 34/34/229 35/35/230 24/24/231 
f 46/46/232 36/36/233 35/57/234 
f 46/46/235 37/37/236 36/36/237 
f 46/46/238 38/38/239 37/37/240 
f 46/46/241 39/39/242 38/38/243 
f 46/46/244 40/40/245 39/39/246 
f 46/46/247 41/41/248 40/40/249 
f 46/46/250 42/42/251 41/41/252 
f 46/46/253 43/43/254 42/42/255 
f 46/46/256 44/44/257 43/43/258 
f 46/46/259 45/45/260 44/44/261 
f 46/46/262 35/35/263 45/45/264 
# 88 faces

