# 3ds Max Wavefront OBJ Exporter v0.97b - (c)2007 guruware
# File Created: 01.07.2011 17:07:12

mtllib PIGRATE_SOMBRERO.mtl

#
# object Plane007
#

v  9.5397 -56.1355 206.8148
v  66.9093 -34.3854 205.0758
v  99.0811 4.5864 185.5170
v  5.3822 -53.7407 244.2363
v  49.8709 -44.1618 234.7094
v  89.5876 -2.0028 214.3282
v  1.9015 -37.4741 271.8765
v  27.1810 -26.7337 269.7950
v  41.5258 -3.2954 261.4509
v  -1.6302 -5.1539 315.1919
v  12.8289 -5.1539 310.1049
v  29.5719 -0.9920 286.2219
v  7.3757 -39.8413 219.0132
v  7.3757 7.3663 224.6580
v  7.3757 55.6844 211.5173
v  13.5912 76.0918 183.2021
v  9.5397 87.9022 195.7671
v  12.0314 46.9921 219.5285
v  10.0297 30.1276 257.7899
v  9.5397 21.7674 303.6120
v  11.9810 -53.6259 224.9990
v  59.6961 -38.2556 218.7833
v  94.3800 3.5659 197.9056
v  35.3118 20.0103 255.4300
v  63.2837 33.0325 215.2833
v  75.3557 81.0693 178.5184
v  74.9228 63.1446 171.9753
v  50.0071 -22.0315 205.2511
v  61.0013 46.8183 182.2073
v  70.1923 8.9907 191.2946
v  -11.4766 -5.1539 315.3236
v  -11.4766 53.8646 213.9221
v  -11.4766 86.1150 198.6145
v  -11.4766 43.7547 221.7250
v  -11.4766 29.5582 257.5350
v  -11.4766 19.9801 306.4594
v  -28.3355 -53.7407 244.2363
v  -34.9343 -53.6259 224.9990
v  -82.6494 -38.2556 218.7833
v  -72.8241 -44.1618 234.7094
v  -117.3332 3.5659 197.9056
v  -112.5408 -2.0028 214.3282
v  -24.8548 -37.4741 271.8765
v  -50.1342 -26.7337 269.7950
v  -64.4790 -3.2954 261.4509
v  -21.3230 -5.1539 315.1919
v  -35.7822 -5.1539 310.1049
v  -52.5252 -0.9920 286.2219
v  -32.4929 -56.1355 206.8148
v  -11.4766 -57.9227 209.6623
v  -11.4766 -40.9766 221.8070
v  -30.3289 -39.8413 219.0132
v  -11.4766 5.5466 227.0628
v  -30.3289 7.3663 224.6580
v  -30.3289 55.6844 211.5173
v  -11.4766 76.5165 183.1418
v  -36.5444 76.0918 183.2021
v  -32.4929 87.9022 195.7671
v  -34.9846 46.9921 219.5285
v  -32.9830 30.1276 257.7899
v  -32.4929 21.7674 303.6120
v  -58.2650 20.0103 255.4300
v  -86.2369 33.0325 215.2833
v  -89.8626 -34.3854 205.0758
v  -122.0343 4.5864 185.5170
v  -98.3089 81.0693 178.5184
v  -97.8760 63.1446 171.9753
v  -72.9603 -22.0315 205.2511
v  -93.1455 8.9907 191.2946
v  -83.9545 46.8183 182.2073
v  -11.4766 -57.8509 227.5095
v  -11.4766 -57.8048 245.3654
v  -11.4766 -40.3302 272.7848
# 73 vertices

vn 0.2231 -0.9731 0.0583
vn 0.5899 -0.8032 0.0826
vn 0.5400 -0.7761 0.3256
vn 0.5400 -0.7761 0.3256
vn 0.2553 -0.9152 0.3119
vn 0.2231 -0.9731 0.0583
vn 0.5899 -0.8032 0.0826
vn 0.8019 -0.5637 0.1980
vn 0.7876 -0.5802 0.2075
vn 0.7876 -0.5802 0.2075
vn 0.5400 -0.7761 0.3256
vn 0.5899 -0.8032 0.0826
vn 0.2553 -0.9152 0.3119
vn 0.5400 -0.7761 0.3256
vn 0.5838 -0.5833 0.5647
vn 0.5838 -0.5833 0.5647
vn 0.2759 -0.7881 0.5503
vn 0.2553 -0.9152 0.3119
vn 0.5400 -0.7761 0.3256
vn 0.7876 -0.5802 0.2075
vn 0.7598 -0.3040 0.5747
vn 0.7598 -0.3040 0.5747
vn 0.5838 -0.5833 0.5647
vn 0.5400 -0.7761 0.3256
vn 0.2759 -0.7881 0.5503
vn 0.5838 -0.5833 0.5647
vn 0.3921 -0.7112 0.5834
vn 0.3921 -0.7112 0.5834
vn 0.0950 -0.7941 0.6003
vn 0.2759 -0.7881 0.5503
vn 0.5838 -0.5833 0.5647
vn 0.7598 -0.3040 0.5747
vn 0.8023 -0.3723 0.4666
vn 0.8023 -0.3723 0.4666
vn 0.3921 -0.7112 0.5834
vn 0.5838 -0.5833 0.5647
vn -0.1537 0.5756 -0.8032
vn -0.1537 0.5756 -0.8032
vn -0.1537 0.5756 -0.8032
vn -0.1576 0.5783 -0.8004
vn -0.1576 0.5783 -0.8004
vn -0.1576 0.5783 -0.8004
vn -0.1522 0.1109 -0.9821
vn -0.1522 0.1109 -0.9821
vn -0.1522 0.1109 -0.9821
vn -0.1368 0.1176 -0.9836
vn -0.1368 0.1176 -0.9836
vn -0.1368 0.1176 -0.9836
vn -0.0973 -0.2612 -0.9604
vn -0.0973 -0.2612 -0.9604
vn -0.0973 -0.2612 -0.9604
vn -0.0973 -0.2612 -0.9604
vn -0.0973 -0.2612 -0.9604
vn -0.0973 -0.2612 -0.9604
vn 0.0021 -0.8054 -0.5927
vn 0.0021 -0.8054 -0.5927
vn 0.0021 -0.8054 -0.5927
vn -0.0123 -0.8099 -0.5864
vn -0.0123 -0.8099 -0.5864
vn -0.0123 -0.8099 -0.5864
vn -0.1422 0.8411 -0.5218
vn -0.1422 0.8411 -0.5218
vn -0.1422 0.8411 -0.5218
vn 0.0140 0.7308 -0.6824
vn 0.0140 0.7308 -0.6824
vn 0.0140 0.7308 -0.6824
vn 0.0161 0.4789 0.8777
vn 0.0161 0.4789 0.8777
vn 0.0161 0.4789 0.8777
vn 0.0737 0.5042 0.8604
vn 0.0737 0.5042 0.8604
vn 0.0737 0.5042 0.8604
vn -0.0290 0.9292 0.3684
vn -0.0290 0.9292 0.3684
vn -0.0290 0.9292 0.3684
vn -0.0886 0.9132 0.3979
vn -0.0886 0.9132 0.3979
vn -0.0886 0.9132 0.3979
vn -0.0573 0.9798 0.1918
vn -0.0573 0.9798 0.1918
vn -0.0573 0.9798 0.1918
vn -0.0282 0.9834 0.1791
vn -0.0282 0.9834 0.1791
vn -0.0282 0.9834 0.1791
vn 0.0126 0.3326 0.9430
vn 0.0126 0.3326 0.9430
vn 0.0126 0.3326 0.9430
vn 0.0952 0.3598 0.9282
vn 0.0952 0.3598 0.9282
vn 0.0952 0.3598 0.9282
vn 0.6403 0.2531 0.7253
vn 0.3206 0.2589 0.9112
vn 0.5521 0.2586 0.7927
vn 0.5521 0.2586 0.7927
vn 0.7759 0.2359 0.5851
vn 0.6403 0.2531 0.7253
vn 0.5774 0.7179 0.3889
vn 0.7885 0.6035 0.1185
vn 0.7392 0.5909 0.3233
vn 0.7392 0.5909 0.3233
vn 0.8620 0.3294 0.3853
vn 0.5564 0.6345 0.5365
vn 0.5774 0.7179 0.3889
vn 0.7392 0.5909 0.3233
vn 0.5564 0.6345 0.5365
vn 0.6738 0.3922 0.6262
vn 0.6198 0.4478 0.6445
vn 0.5374 0.6059 0.5866
vn 0.5374 0.6059 0.5866
vn 0.5504 0.6019 0.5787
vn 0.6738 0.3922 0.6262
vn 0.2074 -0.9738 0.0931
vn 0.7072 -0.6842 0.1782
vn 0.5899 -0.8032 0.0826
vn 0.5899 -0.8032 0.0826
vn 0.2231 -0.9731 0.0583
vn 0.2074 -0.9738 0.0931
vn 0.7072 -0.6842 0.1782
vn 0.8047 -0.5331 0.2614
vn 0.8019 -0.5637 0.1980
vn 0.8019 -0.5637 0.1980
vn 0.5899 -0.8032 0.0826
vn 0.7072 -0.6842 0.1782
vn 0.3868 0.4981 0.7760
vn 0.4234 0.4811 0.7676
vn 0.7769 0.3568 0.5189
vn 0.7769 0.3568 0.5189
vn 0.8808 0.3065 0.3610
vn 0.3868 0.4981 0.7760
vn 0.8740 0.4034 0.2711
vn 0.8340 0.4253 0.3515
vn 0.6877 0.2659 -0.6756
vn 0.6877 0.2659 -0.6756
vn 0.2012 0.3808 -0.9025
vn 0.8740 0.4034 0.2711
vn 0.5374 0.6059 0.5866
vn 0.2716 0.8753 0.4000
vn 0.3120 0.8378 0.4481
vn 0.3120 0.8378 0.4481
vn 0.5504 0.6019 0.5787
vn 0.5374 0.6059 0.5866
vn 0.3868 0.4981 0.7760
vn 0.2680 0.4960 0.8259
vn 0.2451 0.5252 0.8149
vn 0.2451 0.5252 0.8149
vn 0.4234 0.4811 0.7676
vn 0.3868 0.4981 0.7760
vn -0.1096 0.6616 -0.7418
vn -0.1100 0.7063 -0.6993
vn 0.2012 0.3808 -0.9025
vn 0.2012 0.3808 -0.9025
vn 0.6877 0.2659 -0.6756
vn -0.1096 0.6616 -0.7418
vn -0.0235 -0.0180 -0.9996
vn -0.0235 -0.0180 -0.9996
vn -0.0235 -0.0180 -0.9996
vn -0.4476 0.4971 -0.7434
vn -0.4476 0.4971 -0.7434
vn -0.4476 0.4971 -0.7434
vn -0.4651 -0.0934 -0.8803
vn -0.4651 -0.0934 -0.8803
vn -0.4651 -0.0934 -0.8803
vn -0.3471 0.1113 -0.9312
vn -0.3471 0.1113 -0.9312
vn -0.3471 0.1113 -0.9312
vn -0.2409 -0.3595 -0.9015
vn -0.2409 -0.3595 -0.9015
vn -0.2409 -0.3595 -0.9015
vn -0.4340 -0.6830 -0.5875
vn -0.4340 -0.6830 -0.5875
vn -0.4340 -0.6830 -0.5875
vn -0.2194 -0.2869 -0.9325
vn -0.2194 -0.2869 -0.9325
vn -0.2194 -0.2869 -0.9325
vn -0.2284 -0.2719 -0.9348
vn -0.2284 -0.2719 -0.9348
vn -0.2284 -0.2719 -0.9348
vn -0.4957 -0.2279 -0.8380
vn -0.4957 -0.2279 -0.8380
vn -0.4957 -0.2279 -0.8380
vn -0.4398 -0.3094 -0.8431
vn -0.4398 -0.3094 -0.8431
vn -0.4398 -0.3094 -0.8431
vn -0.2821 -0.3251 -0.9026
vn -0.2821 -0.3251 -0.9026
vn -0.2821 -0.3251 -0.9026
vn -0.2291 -0.2796 -0.9324
vn -0.2291 -0.2796 -0.9324
vn -0.2291 -0.2796 -0.9324
vn 0.0000 -0.9998 0.0187
vn 0.2231 -0.9731 0.0583
vn 0.2553 -0.9152 0.3119
vn 0.2553 -0.9152 0.3119
vn 0.0000 -0.9598 0.2806
vn 0.0000 -0.9998 0.0187
vn 0.2553 -0.9152 0.3119
vn 0.2759 -0.7881 0.5503
vn 0.0000 -0.8126 0.5829
vn 0.0000 -0.8126 0.5829
vn 0.0000 -0.9598 0.2806
vn 0.2553 -0.9152 0.3119
vn 0.2759 -0.7881 0.5503
vn 0.0950 -0.7941 0.6003
vn -0.0000 -0.7965 0.6046
vn -0.0000 -0.7965 0.6046
vn 0.0000 -0.8126 0.5829
vn 0.2759 -0.7881 0.5503
vn 0.0000 -0.9985 0.0541
vn 0.2074 -0.9738 0.0931
vn 0.2231 -0.9731 0.0583
vn 0.2231 -0.9731 0.0583
vn 0.0000 -0.9998 0.0187
vn 0.0000 -0.9985 0.0541
vn -0.2231 -0.9731 0.0583
vn -0.2553 -0.9152 0.3119
vn -0.5400 -0.7761 0.3256
vn -0.5400 -0.7761 0.3256
vn -0.5899 -0.8032 0.0826
vn -0.2231 -0.9731 0.0583
vn -0.5899 -0.8032 0.0826
vn -0.5400 -0.7761 0.3256
vn -0.7876 -0.5802 0.2075
vn -0.7876 -0.5802 0.2075
vn -0.8019 -0.5637 0.1980
vn -0.5899 -0.8032 0.0826
vn -0.2553 -0.9152 0.3119
vn -0.2759 -0.7881 0.5503
vn -0.5838 -0.5833 0.5647
vn -0.5838 -0.5833 0.5647
vn -0.5400 -0.7761 0.3256
vn -0.2553 -0.9152 0.3119
vn -0.5400 -0.7761 0.3256
vn -0.5838 -0.5833 0.5647
vn -0.7598 -0.3040 0.5747
vn -0.7598 -0.3040 0.5747
vn -0.7876 -0.5802 0.2075
vn -0.5400 -0.7761 0.3256
vn -0.2759 -0.7881 0.5503
vn -0.0950 -0.7941 0.6003
vn -0.3921 -0.7112 0.5834
vn -0.3921 -0.7112 0.5834
vn -0.5838 -0.5833 0.5647
vn -0.2759 -0.7881 0.5503
vn -0.5838 -0.5833 0.5647
vn -0.3921 -0.7112 0.5834
vn -0.8023 -0.3723 0.4666
vn -0.8023 -0.3723 0.4666
vn -0.7598 -0.3040 0.5747
vn -0.5838 -0.5833 0.5647
vn 0.1576 0.5783 -0.8004
vn 0.1576 0.5783 -0.8004
vn 0.1576 0.5783 -0.8004
vn 0.1537 0.5756 -0.8032
vn 0.1537 0.5756 -0.8032
vn 0.1537 0.5756 -0.8032
vn 0.1368 0.1176 -0.9836
vn 0.1368 0.1176 -0.9836
vn 0.1368 0.1176 -0.9836
vn 0.1522 0.1109 -0.9821
vn 0.1522 0.1109 -0.9821
vn 0.1522 0.1109 -0.9821
vn 0.0973 -0.2612 -0.9604
vn 0.0973 -0.2612 -0.9604
vn 0.0973 -0.2612 -0.9604
vn 0.0973 -0.2612 -0.9604
vn 0.0973 -0.2612 -0.9604
vn 0.0973 -0.2612 -0.9604
vn 0.0123 -0.8099 -0.5864
vn 0.0123 -0.8099 -0.5864
vn 0.0123 -0.8099 -0.5864
vn -0.0021 -0.8054 -0.5927
vn -0.0021 -0.8054 -0.5927
vn -0.0021 -0.8054 -0.5927
vn -0.0140 0.7308 -0.6824
vn -0.0140 0.7308 -0.6824
vn -0.0140 0.7308 -0.6824
vn 0.1422 0.8411 -0.5218
vn 0.1422 0.8411 -0.5218
vn 0.1422 0.8411 -0.5218
vn -0.0737 0.5042 0.8604
vn -0.0737 0.5042 0.8604
vn -0.0737 0.5042 0.8604
vn -0.0161 0.4789 0.8777
vn -0.0161 0.4789 0.8777
vn -0.0161 0.4789 0.8777
vn 0.0886 0.9132 0.3979
vn 0.0886 0.9132 0.3979
vn 0.0886 0.9132 0.3979
vn 0.0290 0.9292 0.3684
vn 0.0290 0.9292 0.3684
vn 0.0290 0.9292 0.3684
vn 0.0282 0.9834 0.1791
vn 0.0282 0.9834 0.1791
vn 0.0282 0.9834 0.1791
vn 0.0573 0.9798 0.1918
vn 0.0573 0.9798 0.1918
vn 0.0573 0.9798 0.1918
vn -0.0952 0.3598 0.9282
vn -0.0952 0.3598 0.9282
vn -0.0952 0.3598 0.9282
vn -0.0126 0.3326 0.9430
vn -0.0126 0.3326 0.9430
vn -0.0126 0.3326 0.9430
vn -0.6403 0.2531 0.7253
vn -0.7759 0.2359 0.5851
vn -0.5521 0.2586 0.7927
vn -0.5521 0.2586 0.7927
vn -0.3206 0.2589 0.9112
vn -0.6403 0.2531 0.7253
vn -0.5564 0.6345 0.5365
vn -0.8620 0.3294 0.3853
vn -0.7392 0.5909 0.3233
vn -0.5774 0.7179 0.3889
vn -0.5564 0.6345 0.5365
vn -0.7392 0.5909 0.3233
vn -0.5774 0.7179 0.3889
vn -0.7392 0.5909 0.3233
vn -0.7885 0.6035 0.1185
vn -0.6738 0.3922 0.6262
vn -0.5504 0.6019 0.5787
vn -0.5374 0.6059 0.5866
vn -0.5374 0.6059 0.5866
vn -0.6198 0.4478 0.6445
vn -0.6738 0.3922 0.6262
vn -0.2074 -0.9738 0.0931
vn -0.2231 -0.9731 0.0583
vn -0.5899 -0.8032 0.0826
vn -0.5899 -0.8032 0.0826
vn -0.7072 -0.6842 0.1782
vn -0.2074 -0.9738 0.0931
vn -0.7072 -0.6842 0.1782
vn -0.5899 -0.8032 0.0826
vn -0.8019 -0.5637 0.1980
vn -0.8019 -0.5637 0.1980
vn -0.8047 -0.5331 0.2614
vn -0.7072 -0.6842 0.1782
vn -0.3868 0.4981 0.7760
vn -0.8808 0.3065 0.3610
vn -0.7769 0.3568 0.5189
vn -0.7769 0.3568 0.5189
vn -0.4234 0.4811 0.7676
vn -0.3868 0.4981 0.7760
vn -0.8740 0.4034 0.2711
vn -0.2012 0.3808 -0.9025
vn -0.6877 0.2659 -0.6756
vn -0.6877 0.2659 -0.6756
vn -0.8340 0.4253 0.3515
vn -0.8740 0.4034 0.2711
vn -0.5374 0.6059 0.5866
vn -0.5504 0.6019 0.5787
vn -0.3120 0.8378 0.4481
vn -0.3120 0.8378 0.4481
vn -0.2716 0.8753 0.4000
vn -0.5374 0.6059 0.5866
vn -0.3868 0.4981 0.7760
vn -0.4234 0.4811 0.7676
vn -0.2451 0.5252 0.8149
vn -0.2451 0.5252 0.8149
vn -0.2680 0.4960 0.8259
vn -0.3868 0.4981 0.7760
vn 0.1096 0.6616 -0.7418
vn -0.6877 0.2659 -0.6756
vn -0.2012 0.3808 -0.9025
vn -0.2012 0.3808 -0.9025
vn 0.1100 0.7063 -0.6993
vn 0.1096 0.6616 -0.7418
vn 0.4476 0.4971 -0.7434
vn 0.4476 0.4971 -0.7434
vn 0.4476 0.4971 -0.7434
vn 0.0235 -0.0180 -0.9996
vn 0.0235 -0.0180 -0.9996
vn 0.0235 -0.0180 -0.9996
vn 0.3471 0.1113 -0.9312
vn 0.3471 0.1113 -0.9312
vn 0.3471 0.1113 -0.9312
vn 0.4651 -0.0934 -0.8803
vn 0.4651 -0.0934 -0.8803
vn 0.4651 -0.0934 -0.8803
vn 0.4340 -0.6830 -0.5875
vn 0.4340 -0.6830 -0.5875
vn 0.4340 -0.6830 -0.5875
vn 0.2409 -0.3595 -0.9015
vn 0.2409 -0.3595 -0.9015
vn 0.2409 -0.3595 -0.9015
vn 0.2284 -0.2719 -0.9348
vn 0.2284 -0.2719 -0.9348
vn 0.2284 -0.2719 -0.9348
vn 0.2194 -0.2869 -0.9325
vn 0.2194 -0.2869 -0.9325
vn 0.2194 -0.2869 -0.9325
vn 0.4398 -0.3094 -0.8431
vn 0.4398 -0.3094 -0.8431
vn 0.4398 -0.3094 -0.8431
vn 0.4957 -0.2279 -0.8380
vn 0.4957 -0.2279 -0.8380
vn 0.4957 -0.2279 -0.8380
vn 0.2291 -0.2796 -0.9324
vn 0.2291 -0.2796 -0.9324
vn 0.2291 -0.2796 -0.9324
vn 0.2821 -0.3251 -0.9026
vn 0.2821 -0.3251 -0.9026
vn 0.2821 -0.3251 -0.9026
vn 0.0000 -0.9998 0.0187
vn 0.0000 -0.9598 0.2806
vn -0.2553 -0.9152 0.3119
vn -0.2553 -0.9152 0.3119
vn -0.2231 -0.9731 0.0583
vn 0.0000 -0.9998 0.0187
vn -0.2553 -0.9152 0.3119
vn 0.0000 -0.9598 0.2806
vn 0.0000 -0.8126 0.5829
vn 0.0000 -0.8126 0.5829
vn -0.2759 -0.7881 0.5503
vn -0.2553 -0.9152 0.3119
vn -0.2759 -0.7881 0.5503
vn 0.0000 -0.8126 0.5829
vn -0.0000 -0.7965 0.6046
vn -0.0000 -0.7965 0.6046
vn -0.0950 -0.7941 0.6003
vn -0.2759 -0.7881 0.5503
vn 0.0000 -0.9985 0.0541
vn 0.0000 -0.9998 0.0187
vn -0.2231 -0.9731 0.0583
vn -0.2231 -0.9731 0.0583
vn -0.2074 -0.9738 0.0931
vn 0.0000 -0.9985 0.0541
# 426 vertex normals

vt 0.5085 0.2812 0.0000
vt 0.5332 0.2666 0.0000
vt 0.5871 0.5365 0.0000
vt 0.8601 0.2838 0.0000
vt 0.5588 0.5991 0.0000
vt 0.7598 0.5419 0.0000
vt 0.7106 0.5826 0.0000
vt 0.8398 0.2696 0.0000
vt 0.8093 0.2087 0.0000
vt 0.5980 0.2460 0.0000
vt 0.6682 0.2349 0.0000
vt 0.7166 0.2478 0.0000
vt 0.5745 0.3226 0.0000
vt 0.5634 0.3501 0.0000
vt 0.7706 0.1613 0.0000
vt 0.7222 0.1186 0.0000
vt 0.6978 0.0839 0.0000
vt 0.7200 0.0810 0.0000
vt 0.7622 0.0917 0.0000
vt 0.9569 0.5662 0.0000
vt 0.9138 0.6068 0.0000
vt 0.8018 0.1007 0.0000
vt 0.7997 0.1355 0.0000
vt 0.8986 0.1014 0.0000
vt 0.8708 0.1592 0.0000
vt 0.6283 0.3444 0.0000
vt 0.6829 0.3226 0.0000
vt 0.7119 0.3400 0.0000
vt 0.6314 0.3873 0.0000
vt 0.5493 0.7078 0.0000
vt 0.6411 0.7198 0.0000
vt 0.7344 0.7478 0.0000
vt 0.5397 0.8908 0.0000
vt 0.5904 0.8752 0.0000
vt 0.6734 0.8190 0.0000
vt 0.5843 0.4740 0.0000
vt 0.7987 0.5063 0.0000
vt 0.9856 0.5328 0.0000
vt 0.9251 0.2288 0.0000
vt 0.9231 0.1157 0.0000
vt 0.9421 0.1221 0.0000
vt 0.9407 0.2271 0.0000
vt 0.5045 0.5973 0.0000
vt 0.5045 0.4791 0.0000
vt 0.4959 0.2529 0.0000
vt 0.5045 0.7055 0.0000
vt 0.5045 0.8920 0.0000
vt 0.6827 0.0893 0.0000
vt 0.5236 0.2406 0.0000
vt 0.5891 0.2199 0.0000
vt 0.6627 0.2082 0.0000
vt 0.7192 0.2110 0.0000
vt 0.8295 0.3055 0.0000
vt 0.8137 0.2834 0.0000
vt 0.7780 0.2240 0.0000
vt 0.7464 0.1820 0.0000
vt 0.6956 0.1289 0.0000
vt 0.5045 0.5389 0.0000
vt 0.4502 0.5991 0.0000
vt 0.2985 0.5826 0.0000
vt 0.2493 0.5419 0.0000
vt 0.4220 0.5365 0.0000
vt 0.0953 0.6068 0.0000
vt 0.0522 0.5662 0.0000
vt 0.4598 0.7078 0.0000
vt 0.3680 0.7199 0.0000
vt 0.2747 0.7478 0.0000
vt 0.4694 0.8908 0.0000
vt 0.4187 0.8752 0.0000
vt 0.3357 0.8190 0.0000
vt 0.5451 0.1145 0.0000
vt 0.5577 0.0862 0.0000
vt 0.5300 0.0739 0.0000
vt 0.5204 0.1000 0.0000
vt 0.4644 0.0532 0.0000
vt 0.4555 0.0794 0.0000
vt 0.3908 0.0415 0.0000
vt 0.3853 0.0682 0.0000
vt 0.3343 0.0442 0.0000
vt 0.3369 0.0811 0.0000
vt 0.2056 0.0593 0.0000
vt 0.1751 0.0375 0.0000
vt 0.1592 0.0596 0.0000
vt 0.1853 0.0734 0.0000
vt 0.1235 0.1191 0.0000
vt 0.1549 0.1344 0.0000
vt 0.0919 0.1611 0.0000
vt 0.1162 0.1818 0.0000
vt 0.0411 0.2141 0.0000
vt 0.0678 0.2245 0.0000
vt 0.0282 0.2537 0.0000
vt 0.0433 0.2592 0.0000
vt 0.0655 0.2620 0.0000
vt 0.1077 0.2513 0.0000
vt 0.1473 0.2424 0.0000
vt 0.1453 0.2076 0.0000
vt 0.2442 0.2417 0.0000
vt 0.2163 0.1838 0.0000
vt 0.2104 0.5063 0.0000
vt 0.4248 0.4740 0.0000
vt 0.0235 0.5328 0.0000
vt 0.2706 0.1143 0.0000
vt 0.2687 0.2274 0.0000
vt 0.2877 0.2209 0.0000
vt 0.2863 0.1160 0.0000
vt 0.4790 0.1560 0.0000
vt 0.4901 0.1834 0.0000
vt 0.4252 0.1777 0.0000
vt 0.3707 0.1559 0.0000
vt 0.3416 0.1733 0.0000
vt 0.4221 0.2207 0.0000
# 111 texture coords

g Plane007
usemtl 15___Default
f 21/3/1 22/6/2 5/7/3 
f 5/7/4 4/5/5 21/3/6 
f 22/6/7 23/20/8 6/21/9 
f 6/21/10 5/7/11 22/6/12 
f 4/5/13 5/7/14 8/31/15 
f 8/31/16 7/30/17 4/5/18 
f 5/7/19 6/21/20 9/32/21 
f 9/32/22 8/31/23 5/7/24 
f 7/30/25 8/31/26 11/34/27 
f 11/34/28 10/33/29 7/30/30 
f 8/31/31 9/32/32 12/35/33 
f 12/35/34 11/34/35 8/31/36 
f 50/45/37 51/49/38 13/2/39 
f 13/2/40 1/1/41 50/45/42 
f 13/2/43 51/49/44 53/50/45 
f 53/50/46 14/10/47 13/2/48 
f 14/10/49 53/50/50 32/51/51 
f 32/51/52 15/11/53 14/10/54 
f 15/11/55 32/51/56 56/52/57 
f 56/52/58 16/12/59 15/11/60 
f 56/53/61 33/54/62 17/8/63 
f 17/8/64 16/4/65 56/53/66 
f 33/54/67 34/55/68 18/9/69 
f 18/9/70 17/8/71 33/54/72 
f 34/55/73 35/56/74 19/15/75 
f 19/15/76 18/9/77 34/55/78 
f 35/56/79 36/57/80 20/16/81 
f 20/16/82 19/15/83 35/56/84 
f 36/57/85 31/48/86 10/17/87 
f 10/17/88 20/16/89 36/57/90 
f 20/16/91 10/17/92 11/18/93 
f 11/18/94 12/19/95 20/16/96 
f 19/15/97 20/16/98 12/19/99 
f 12/19/100 9/22/101 24/23/102 
f 19/15/103 12/19/104 24/23/105 
f 9/22/106 6/24/107 25/25/108 
f 25/25/109 24/23/110 9/22/111 
f 1/36/112 2/37/113 22/6/114 
f 22/6/115 21/3/116 1/36/117 
f 2/37/118 3/38/119 23/20/120 
f 23/20/121 22/6/122 2/37/123 
f 26/39/124 25/25/125 6/24/126 
f 6/24/127 23/40/128 26/39/129 
f 23/40/130 3/41/131 27/42/132 
f 27/42/133 26/39/134 23/40/135 
f 25/25/136 18/9/137 19/15/138 
f 19/15/139 24/23/140 25/25/141 
f 26/39/142 17/8/143 18/9/144 
f 18/9/145 25/25/146 26/39/147 
f 16/4/148 17/8/149 26/39/150 
f 26/39/151 27/42/152 16/4/153 
f 28/13/154 2/14/155 1/1/156 
f 1/1/157 13/2/158 28/13/159 
f 14/10/160 30/26/161 28/13/162 
f 28/13/163 13/2/164 14/10/165 
f 16/12/166 27/28/167 29/27/168 
f 29/27/169 15/11/170 16/12/171 
f 3/29/172 2/14/173 28/13/174 
f 28/13/175 30/26/176 3/29/177 
f 14/10/178 15/11/179 29/27/180 
f 29/27/181 30/26/182 14/10/183 
f 29/27/184 27/28/185 3/29/186 
f 3/29/187 30/26/188 29/27/189 
f 71/58/190 21/3/191 4/5/192 
f 4/5/193 72/43/194 71/58/195 
f 4/5/196 7/30/197 73/46/198 
f 73/46/199 72/43/200 4/5/201 
f 7/30/202 10/33/203 31/47/204 
f 31/47/205 73/46/206 7/30/207 
f 50/44/208 1/36/209 21/3/210 
f 21/3/211 71/58/212 50/44/213 
f 38/62/214 37/59/215 40/60/216 
f 40/60/217 39/61/218 38/62/219 
f 39/61/220 40/60/221 42/63/222 
f 42/63/223 41/64/224 39/61/225 
f 37/59/226 43/65/227 44/66/228 
f 44/66/229 40/60/230 37/59/231 
f 40/60/232 44/66/233 45/67/234 
f 45/67/235 42/63/236 40/60/237 
f 43/65/238 46/68/239 47/69/240 
f 47/69/241 44/66/242 43/65/243 
f 44/66/244 47/69/245 48/70/246 
f 48/70/247 45/67/248 44/66/249 
f 50/72/250 49/71/251 52/74/252 
f 52/74/253 51/73/254 50/72/255 
f 52/74/256 54/76/257 53/75/258 
f 53/75/259 51/73/260 52/74/261 
f 54/76/262 55/78/263 32/77/264 
f 32/77/265 53/75/266 54/76/267 
f 55/78/268 57/80/269 56/79/270 
f 56/79/271 32/77/272 55/78/273 
f 56/82/274 57/81/275 58/84/276 
f 58/84/277 33/83/278 56/82/279 
f 33/83/280 58/84/281 59/86/282 
f 59/86/283 34/85/284 33/83/285 
f 34/85/286 59/86/287 60/88/288 
f 60/88/289 35/87/290 34/85/291 
f 35/87/292 60/88/293 61/90/294 
f 61/90/295 36/89/296 35/87/297 
f 36/89/298 61/90/299 46/92/300 
f 46/92/301 31/91/302 36/89/303 
f 61/90/304 48/94/305 47/93/306 
f 47/93/307 46/92/308 61/90/309 
f 62/96/310 45/95/311 48/94/312 
f 60/88/313 62/96/314 48/94/315 
f 60/88/316 48/94/317 61/90/318 
f 45/95/319 62/96/320 63/98/321 
f 63/98/322 42/97/323 45/95/324 
f 49/100/325 38/62/326 39/61/327 
f 39/61/328 64/99/329 49/100/330 
f 64/99/331 39/61/332 41/64/333 
f 41/64/334 65/101/335 64/99/336 
f 66/102/337 41/103/338 42/97/339 
f 42/97/340 63/98/341 66/102/342 
f 41/103/343 66/102/344 67/105/345 
f 67/105/346 65/104/347 41/103/348 
f 63/98/349 62/96/350 60/88/351 
f 60/88/352 59/86/353 63/98/354 
f 66/102/355 63/98/356 59/86/357 
f 59/86/358 58/84/359 66/102/360 
f 57/81/361 67/105/362 66/102/363 
f 66/102/364 58/84/365 57/81/366 
f 68/106/367 52/74/368 49/71/369 
f 49/71/370 64/107/371 68/106/372 
f 54/76/373 52/74/374 68/106/375 
f 68/106/376 69/108/377 54/76/378 
f 57/80/379 55/78/380 70/109/381 
f 70/109/382 67/110/383 57/80/384 
f 65/111/385 69/108/386 68/106/387 
f 68/106/388 64/107/389 65/111/390 
f 54/76/391 69/108/392 70/109/393 
f 70/109/394 55/78/395 54/76/396 
f 70/109/397 69/108/398 65/111/399 
f 65/111/400 67/110/401 70/109/402 
f 71/58/403 72/43/404 37/59/405 
f 37/59/406 38/62/407 71/58/408 
f 37/59/409 72/43/410 73/46/411 
f 73/46/412 43/65/413 37/59/414 
f 43/65/415 73/46/416 31/47/417 
f 31/47/418 46/68/419 43/65/420 
f 50/44/421 71/58/422 38/62/423 
f 38/62/424 49/100/425 50/44/426 
# 142 faces

