# 3ds Max Wavefront OBJ Exporter v0.97b - (c)2007 guruware
# File Created: 07.07.2011 17:08:11

mtllib poste.mtl

#
# object Line002
#

v  23.5837 47.8334 2.7567
v  23.5837 15.2061 2.7567
v  18.2647 15.8565 2.7567
v  11.6393 16.9404 2.7567
v  2.1210 18.1328 2.7567
v  -6.0441 18.4580 2.7567
v  -15.3757 16.8320 2.7567
v  -22.7010 14.7725 2.7567
v  -22.7010 47.5082 2.7567
v  -17.2887 45.7739 2.7567
v  -8.8436 44.9067 2.7567
v  0.5347 44.5815 2.7567
v  9.6796 44.4731 2.7567
v  16.9116 45.2319 2.7567
v  23.5837 47.8334 -0.5486
v  23.5837 15.2061 -0.5486
v  18.2647 15.8565 -0.5486
v  11.6393 16.9404 -0.5486
v  2.1210 18.1328 -0.5486
v  -6.0441 18.4580 -0.5486
v  -15.3757 16.8320 -0.5486
v  -22.7010 14.7725 -0.5486
v  -22.7010 47.5082 -0.5486
v  -17.2887 45.7739 -0.5486
v  -8.8436 44.9067 -0.5486
v  0.5347 44.5815 -0.5486
v  9.6796 44.4731 -0.5486
v  16.9116 45.2319 -0.5486
# 28 vertices

vn 1.0000 -0.0000 0.0000
vn 1.0000 -0.0000 0.0000
vn 1.0000 -0.0000 0.0000
vn 1.0000 -0.0000 0.0000
vn 1.0000 -0.0000 0.0000
vn 1.0000 -0.0000 0.0000
vn -0.1214 -0.9926 0.0000
vn -0.1214 -0.9926 0.0000
vn -0.1214 -0.9926 0.0000
vn -0.1214 -0.9926 0.0000
vn -0.1214 -0.9926 0.0000
vn -0.1214 -0.9926 0.0000
vn -0.1615 -0.9869 0.0000
vn -0.1615 -0.9869 0.0000
vn -0.1615 -0.9869 0.0000
vn -0.1615 -0.9869 0.0000
vn -0.1615 -0.9869 0.0000
vn -0.1615 -0.9869 0.0000
vn -0.1243 -0.9922 0.0000
vn -0.1243 -0.9922 0.0000
vn -0.1243 -0.9922 0.0000
vn -0.1243 -0.9922 0.0000
vn -0.1243 -0.9922 0.0000
vn -0.1243 -0.9922 0.0000
vn -0.0398 -0.9992 0.0000
vn -0.0398 -0.9992 0.0000
vn -0.0398 -0.9992 0.0000
vn -0.0398 -0.9992 0.0000
vn -0.0398 -0.9992 0.0000
vn -0.0398 -0.9992 0.0000
vn 0.1717 -0.9852 0.0000
vn 0.1717 -0.9852 0.0000
vn 0.1717 -0.9852 0.0000
vn 0.1717 -0.9852 0.0000
vn 0.1717 -0.9852 0.0000
vn 0.1717 -0.9852 0.0000
vn 0.2707 -0.9627 0.0000
vn 0.2707 -0.9627 0.0000
vn 0.2707 -0.9627 0.0000
vn 0.2707 -0.9627 0.0000
vn 0.2707 -0.9627 0.0000
vn 0.2707 -0.9627 0.0000
vn -1.0000 0.0000 0.0000
vn -1.0000 0.0000 0.0000
vn -1.0000 0.0000 0.0000
vn -1.0000 0.0000 0.0000
vn -1.0000 0.0000 0.0000
vn -1.0000 0.0000 0.0000
vn 0.3052 0.9523 0.0000
vn 0.3052 0.9523 0.0000
vn 0.3052 0.9523 0.0000
vn 0.3052 0.9523 0.0000
vn 0.3052 0.9523 0.0000
vn 0.3052 0.9523 0.0000
vn 0.1021 0.9948 0.0000
vn 0.1021 0.9948 0.0000
vn 0.1021 0.9948 0.0000
vn 0.1021 0.9948 0.0000
vn 0.1021 0.9948 0.0000
vn 0.1021 0.9948 0.0000
vn 0.0347 0.9994 0.0000
vn 0.0347 0.9994 0.0000
vn 0.0347 0.9994 0.0000
vn 0.0347 0.9994 0.0000
vn 0.0347 0.9994 0.0000
vn 0.0347 0.9994 0.0000
vn 0.0119 0.9999 0.0000
vn 0.0119 0.9999 0.0000
vn 0.0119 0.9999 0.0000
vn 0.0119 0.9999 0.0000
vn 0.0119 0.9999 0.0000
vn 0.0119 0.9999 0.0000
vn -0.1043 0.9945 0.0000
vn -0.1043 0.9945 0.0000
vn -0.1043 0.9945 0.0000
vn -0.1043 0.9945 0.0000
vn -0.1043 0.9945 0.0000
vn -0.1043 0.9945 0.0000
vn -0.3633 0.9317 0.0000
vn -0.3633 0.9317 0.0000
vn -0.3633 0.9317 0.0000
vn -0.3633 0.9317 0.0000
vn -0.3633 0.9317 0.0000
vn -0.3633 0.9317 0.0000
vn 0.0000 -0.0000 1.0000
vn 0.0000 -0.0000 1.0000
vn -0.0000 -0.0000 1.0000
vn 0.0000 -0.0000 1.0000
vn 0.0000 -0.0000 1.0000
vn 0.0000 -0.0000 1.0000
vn 0.0000 -0.0000 1.0000
vn -0.0000 -0.0000 1.0000
vn 0.0000 -0.0000 1.0000
vn 0.0000 -0.0000 1.0000
vn -0.0000 -0.0000 1.0000
vn 0.0000 -0.0000 1.0000
vn 0.0000 -0.0000 1.0000
vn 0.0000 -0.0000 1.0000
vn -0.0000 -0.0000 1.0000
vn -0.0000 -0.0000 1.0000
vn 0.0000 -0.0000 1.0000
vn 0.0000 -0.0000 1.0000
vn -0.0000 -0.0000 1.0000
vn -0.0000 -0.0000 1.0000
vn 0.0000 -0.0000 1.0000
vn -0.0000 -0.0000 1.0000
vn -0.0000 -0.0000 1.0000
vn -0.0000 -0.0000 1.0000
vn -0.0000 -0.0000 1.0000
vn 0.0000 -0.0000 1.0000
vn -0.0000 -0.0000 1.0000
vn -0.0000 -0.0000 1.0000
vn 0.0000 -0.0000 1.0000
vn -0.0000 -0.0000 1.0000
vn 0.0000 -0.0000 1.0000
vn -0.0000 -0.0000 1.0000
vn -0.0000 -0.0000 1.0000
vn 0.0000 -0.0000 1.0000
vn 0.0000 -0.0000 1.0000
vn -0.0000 -0.0000 1.0000
vn -0.0000 0.0000 -1.0000
vn 0.0000 0.0000 -1.0000
vn -0.0000 0.0000 -1.0000
vn -0.0000 0.0000 -1.0000
vn -0.0000 0.0000 -1.0000
vn -0.0000 0.0000 -1.0000
vn -0.0000 0.0000 -1.0000
vn -0.0000 0.0000 -1.0000
vn 0.0000 0.0000 -1.0000
vn -0.0000 0.0000 -1.0000
vn -0.0000 0.0000 -1.0000
vn 0.0000 0.0000 -1.0000
vn -0.0000 0.0000 -1.0000
vn 0.0000 0.0000 -1.0000
vn -0.0000 0.0000 -1.0000
vn 0.0000 0.0000 -1.0000
vn -0.0000 0.0000 -1.0000
vn -0.0000 0.0000 -1.0000
vn 0.0000 0.0000 -1.0000
vn -0.0000 0.0000 -1.0000
vn 0.0000 0.0000 -1.0000
vn 0.0000 0.0000 -1.0000
vn 0.0000 0.0000 -1.0000
vn 0.0000 0.0000 -1.0000
vn 0.0000 0.0000 -1.0000
vn 0.0000 0.0000 -1.0000
vn -0.0000 0.0000 -1.0000
vn 0.0000 0.0000 -1.0000
vn 0.0000 0.0000 -1.0000
vn -0.0000 0.0000 -1.0000
vn -0.0000 0.0000 -1.0000
vn 0.0000 0.0000 -1.0000
vn 0.0000 0.0000 -1.0000
vn -0.0000 0.0000 -1.0000
vn 0.0000 0.0000 -1.0000
vn -0.0000 0.0000 -1.0000
# 156 vertex normals

vt 0.0384 0.9596 0.0000
vt 0.0384 0.0354 0.0000
vt 0.0384 0.0354 0.0000
vt 0.0384 0.9596 0.0000
vt 0.1461 0.0538 0.0000
vt 0.1461 0.0538 0.0000
vt 0.2801 0.0845 0.0000
vt 0.2801 0.0845 0.0000
vt 0.4727 0.1183 0.0000
vt 0.4727 0.1183 0.0000
vt 0.6380 0.1275 0.0000
vt 0.6380 0.1275 0.0000
vt 0.8268 0.0814 0.0000
vt 0.8268 0.0814 0.0000
vt 0.9750 0.0231 0.0000
vt 0.9750 0.0231 0.0000
vt 0.9750 0.9504 0.0000
vt 0.9750 0.9504 0.0000
vt 0.8655 0.9013 0.0000
vt 0.8655 0.9013 0.0000
vt 0.6946 0.8767 0.0000
vt 0.6946 0.8767 0.0000
vt 0.5048 0.8675 0.0000
vt 0.5048 0.8675 0.0000
vt 0.3198 0.8644 0.0000
vt 0.3198 0.8644 0.0000
vt 0.1735 0.8859 0.0000
vt 0.1735 0.8859 0.0000
vt 0.8793 0.0956 0.0000
vt 0.2531 0.1087 0.0000
vt 0.2518 0.0455 0.0000
vt 0.8780 0.0323 0.0000
vt 0.2496 0.0414 0.0000
vt 0.8739 0.0358 0.0000
vt 0.8744 0.0990 0.0000
vt 0.2502 0.1046 0.0000
vt 0.9717 0.0969 0.0000
vt 0.8630 0.0942 0.0000
vt 0.8645 0.0310 0.0000
vt 0.9732 0.0336 0.0000
vt 0.7006 0.0903 0.0000
vt 0.7021 0.0270 0.0000
vt 0.5211 0.0858 0.0000
vt 0.5226 0.0226 0.0000
vt 0.3461 0.0815 0.0000
vt 0.3477 0.0183 0.0000
vt 0.2070 0.0780 0.0000
vt 0.2086 0.0147 0.0000
vt 0.0701 0.0745 0.0000
vt 0.0717 0.0113 0.0000
vt 0.9647 0.1006 0.0000
vt 0.8622 0.1011 0.0000
vt 0.8619 0.0379 0.0000
vt 0.9644 0.0374 0.0000
vt 0.7338 0.1017 0.0000
vt 0.7334 0.0385 0.0000
vt 0.5502 0.1027 0.0000
vt 0.5499 0.0395 0.0000
vt 0.3939 0.1036 0.0000
vt 0.3935 0.0403 0.0000
vt 0.2127 0.1046 0.0000
vt 0.2123 0.0414 0.0000
vt 0.0671 0.1055 0.0000
vt 0.0667 0.0423 0.0000
# 64 texture coords

g Line002
usemtl madera
f 1/33/1 2/34/2 16/35/3 
f 1/33/4 16/35/5 15/36/6 
f 2/51/7 3/52/8 17/53/9 
f 2/51/10 17/53/11 16/54/12 
f 3/52/13 4/55/14 18/56/15 
f 3/52/16 18/56/17 17/53/18 
f 4/55/19 5/57/20 19/58/21 
f 4/55/22 19/58/23 18/56/24 
f 5/57/25 6/59/26 20/60/27 
f 5/57/28 20/60/29 19/58/30 
f 6/59/31 7/61/32 21/62/33 
f 6/59/34 21/62/35 20/60/36 
f 7/61/37 8/63/38 22/64/39 
f 7/61/40 22/64/41 21/62/42 
f 8/29/43 9/30/44 23/31/45 
f 8/29/46 23/31/47 22/32/48 
f 9/37/49 10/38/50 24/39/51 
f 9/37/52 24/39/53 23/40/54 
f 10/38/55 11/41/56 25/42/57 
f 10/38/58 25/42/59 24/39/60 
f 11/41/61 12/43/62 26/44/63 
f 11/41/64 26/44/65 25/42/66 
f 12/43/67 13/45/68 27/46/69 
f 12/43/70 27/46/71 26/44/72 
f 13/45/73 14/47/74 28/48/75 
f 13/45/76 28/48/77 27/46/78 
f 14/47/79 1/49/80 15/50/81 
f 14/47/82 15/50/83 28/48/84 
f 14/27/85 2/2/86 1/1/87 
f 14/27/88 3/5/89 2/2/90 
f 14/27/91 4/7/92 3/5/93 
f 13/25/94 4/7/95 14/27/96 
f 13/25/97 5/9/98 4/7/99 
f 12/23/100 5/9/101 13/25/102 
f 12/23/103 6/11/104 5/9/105 
f 11/21/106 6/11/107 12/23/108 
f 11/21/109 7/13/110 6/11/111 
f 10/19/112 7/13/113 11/21/114 
f 8/15/115 10/19/116 9/17/117 
f 8/15/118 7/13/119 10/19/120 
f 28/28/121 15/4/122 16/3/123 
f 28/28/124 16/3/125 17/6/126 
f 28/28/127 17/6/128 18/8/129 
f 27/26/130 28/28/131 18/8/132 
f 27/26/133 18/8/134 19/10/135 
f 26/24/136 27/26/137 19/10/138 
f 26/24/139 19/10/140 20/12/141 
f 25/22/142 26/24/143 20/12/144 
f 25/22/145 20/12/146 21/14/147 
f 24/20/148 25/22/149 21/14/150 
f 22/16/151 23/18/152 24/20/153 
f 22/16/154 24/20/155 21/14/156 
# 52 faces

#
# object Line003
#

v  2.7206 -0.1379 2.0222
v  -1.6744 -0.1379 2.0222
v  -1.4278 11.4405 2.0222
v  -1.4278 22.0901 2.0222
v  -1.5516 26.9127 2.0222
v  2.4110 26.9127 2.0222
v  2.1634 23.3904 2.0222
v  1.9157 12.4311 2.0222
v  2.1014 5.0012 2.0222
v  2.7206 -0.1379 0.1859
v  -1.6744 -0.1379 0.1859
v  -1.4278 11.4405 0.1859
v  -1.4278 22.0901 0.1859
v  -1.5516 26.9127 0.1859
v  2.4110 26.9127 0.1859
v  2.1634 23.3904 0.1859
v  1.9157 12.4311 0.1859
v  2.1014 5.0012 0.1859
# 18 vertices

vn 0.0000 -1.0000 0.0000
vn 0.0000 -1.0000 0.0000
vn 0.0000 -1.0000 0.0000
vn 0.0000 -1.0000 0.0000
vn 0.0000 -1.0000 0.0000
vn 0.0000 -1.0000 0.0000
vn -0.9998 0.0213 0.0000
vn -0.9998 0.0213 0.0000
vn -0.9998 0.0213 0.0000
vn -0.9998 0.0213 0.0000
vn -0.9998 0.0213 0.0000
vn -0.9998 0.0213 0.0000
vn -1.0000 0.0000 0.0000
vn -1.0000 0.0000 0.0000
vn -1.0000 0.0000 0.0000
vn -1.0000 0.0000 0.0000
vn -1.0000 0.0000 0.0000
vn -1.0000 0.0000 0.0000
vn -0.9997 -0.0257 0.0000
vn -0.9997 -0.0257 0.0000
vn -0.9997 -0.0257 0.0000
vn -0.9997 -0.0257 0.0000
vn -0.9997 -0.0257 0.0000
vn -0.9997 -0.0257 0.0000
vn 0.0000 1.0000 0.0000
vn 0.0000 1.0000 0.0000
vn 0.0000 1.0000 0.0000
vn 0.0000 1.0000 0.0000
vn 0.0000 1.0000 0.0000
vn 0.0000 1.0000 0.0000
vn 0.9975 -0.0701 0.0000
vn 0.9975 -0.0701 0.0000
vn 0.9975 -0.0701 0.0000
vn 0.9975 -0.0701 0.0000
vn 0.9975 -0.0701 0.0000
vn 0.9975 -0.0701 0.0000
vn 0.9997 -0.0226 -0.0000
vn 0.9997 -0.0226 -0.0000
vn 0.9997 -0.0226 -0.0000
vn 0.9997 -0.0226 -0.0000
vn 0.9997 -0.0226 -0.0000
vn 0.9997 -0.0226 0.0000
vn 0.9997 0.0250 0.0000
vn 0.9997 0.0250 0.0000
vn 0.9997 0.0250 0.0000
vn 0.9997 0.0250 0.0000
vn 0.9997 0.0250 0.0000
vn 0.9997 0.0250 0.0000
vn 0.9928 0.1196 0.0000
vn 0.9928 0.1196 0.0000
vn 0.9928 0.1196 0.0000
vn 0.9928 0.1196 0.0000
vn 0.9928 0.1196 0.0000
vn 0.9928 0.1196 0.0000
vn -0.0000 -0.0000 1.0000
vn -0.0000 -0.0000 1.0000
vn 0.0000 -0.0000 1.0000
vn -0.0000 -0.0000 1.0000
vn -0.0000 -0.0000 1.0000
vn -0.0000 -0.0000 1.0000
vn -0.0000 -0.0000 1.0000
vn -0.0000 -0.0000 1.0000
vn -0.0000 -0.0000 1.0000
vn -0.0000 -0.0000 1.0000
vn -0.0000 -0.0000 1.0000
vn -0.0000 -0.0000 1.0000
vn -0.0000 -0.0000 1.0000
vn -0.0000 -0.0000 1.0000
vn -0.0000 -0.0000 1.0000
vn -0.0000 -0.0000 1.0000
vn -0.0000 -0.0000 1.0000
vn -0.0000 -0.0000 1.0000
vn -0.0000 -0.0000 1.0000
vn 0.0000 -0.0000 1.0000
vn -0.0000 -0.0000 1.0000
vn 0.0000 0.0000 -1.0000
vn 0.0000 0.0000 -1.0000
vn 0.0000 0.0000 -1.0000
vn 0.0000 0.0000 -1.0000
vn 0.0000 0.0000 -1.0000
vn 0.0000 0.0000 -1.0000
vn 0.0000 0.0000 -1.0000
vn 0.0000 0.0000 -1.0000
vn 0.0000 0.0000 -1.0000
vn 0.0000 0.0000 -1.0000
vn 0.0000 0.0000 -1.0000
vn 0.0000 0.0000 -1.0000
vn 0.0000 0.0000 -1.0000
vn 0.0000 0.0000 -1.0000
vn 0.0000 0.0000 -1.0000
vn 0.0000 0.0000 -1.0000
vn 0.0000 0.0000 -1.0000
vn 0.0000 0.0000 -1.0000
vn 0.0000 0.0000 -1.0000
vn 0.0000 0.0000 -1.0000
vn 0.0000 0.0000 -1.0000
# 96 vertex normals

vt 0.4400 0.8493 0.0000
vt 0.5373 0.7778 0.0000
vt 0.1223 0.7365 0.0000
vt 0.0250 0.7482 0.0000
vt 0.5373 0.8610 0.0000
vt 0.0250 0.6650 0.0000
vt 0.3180 0.7824 0.0000
vt 0.2443 0.6696 0.0000
vt 0.2993 0.8458 0.0000
vt 0.2630 0.7329 0.0000
vt 0.1163 0.7824 0.0000
vt 0.4460 0.6696 0.0000
vt 0.0917 0.8504 0.0000
vt 0.4706 0.7376 0.0000
vt 0.0250 0.7801 0.0000
vt 0.5373 0.6673 0.0000
vt 0.0250 0.8551 0.0000
vt 0.5373 0.7423 0.0000
vt 0.5373 0.9254 0.0000
vt 0.3180 0.9254 0.0000
vt 0.3180 0.8906 0.0000
vt 0.5373 0.8906 0.0000
vt 0.1163 0.9254 0.0000
vt 0.1163 0.8906 0.0000
vt 0.0250 0.9254 0.0000
vt 0.0250 0.8906 0.0000
vt 0.5373 0.9823 0.0000
vt 0.4706 0.9823 0.0000
vt 0.4706 0.9475 0.0000
vt 0.5373 0.9475 0.0000
vt 0.2630 0.9823 0.0000
vt 0.2630 0.9475 0.0000
vt 0.1223 0.9823 0.0000
vt 0.1223 0.9475 0.0000
vt 0.0250 0.9823 0.0000
vt 0.0250 0.9475 0.0000
vt 0.8269 0.6149 0.0000
vt 0.7519 0.6149 0.0000
vt 0.7519 0.5802 0.0000
vt 0.8269 0.5802 0.0000
vt 0.8351 0.5302 0.0000
vt 0.7519 0.5302 0.0000
vt 0.7519 0.4954 0.0000
vt 0.8351 0.4954 0.0000
# 44 texture coords

g Line003
usemtl madera
f 29/105/157 30/106/158 39/107/159 
f 29/105/160 39/107/161 38/108/162 
f 30/83/163 31/84/164 40/85/165 
f 30/83/166 40/85/167 39/86/168 
f 31/84/169 32/87/170 41/88/171 
f 31/84/172 41/88/173 40/85/174 
f 32/87/175 33/89/176 42/90/177 
f 32/87/178 42/90/179 41/88/180 
f 33/101/181 34/102/182 43/103/183 
f 33/101/184 43/103/185 42/104/186 
f 34/91/187 35/92/188 44/93/189 
f 34/91/190 44/93/191 43/94/192 
f 35/92/193 36/95/194 45/96/195 
f 35/92/196 45/96/197 44/93/198 
f 36/95/199 37/97/200 46/98/201 
f 36/95/202 46/98/203 45/96/204 
f 37/97/205 29/99/206 38/100/207 
f 37/97/208 38/100/209 46/98/210 
f 37/65/211 30/66/212 29/69/213 
f 37/65/214 31/71/215 30/66/216 
f 36/73/217 31/71/218 37/65/219 
f 36/73/220 32/75/221 31/71/222 
f 35/77/223 32/75/224 36/73/225 
f 35/77/226 33/79/227 32/75/228 
f 35/77/229 34/81/230 33/79/231 
f 46/67/232 38/68/233 39/70/234 
f 46/67/235 39/70/236 40/72/237 
f 45/74/238 46/67/239 40/72/240 
f 45/74/241 40/72/242 41/76/243 
f 44/78/244 45/74/245 41/76/246 
f 44/78/247 41/76/248 42/80/249 
f 44/78/250 42/80/251 43/82/252 
# 32 faces

#
# object Plane002
#

v  21.9209 19.3289 -0.5520
v  11.1710 19.3289 -0.5520
v  0.4211 19.3289 -0.5520
v  -10.3288 19.3289 -0.5520
v  -21.0787 19.3289 -0.5520
v  21.9209 25.3220 -0.5520
v  11.1710 25.3220 -0.5520
v  0.4211 25.3220 -0.5520
v  -10.3288 25.3220 -0.5520
v  -21.0787 25.3220 -0.5520
v  21.9209 31.3151 -0.5520
v  11.1710 31.3151 -0.5520
v  0.4211 31.3151 -0.5520
v  -10.3288 31.3151 -0.5520
v  -21.0787 31.3151 -0.5520
v  21.9209 37.3081 -0.5520
v  11.1710 37.3081 -0.5520
v  0.4211 37.3081 -0.5520
v  -10.3288 37.3081 -0.5520
v  -21.0787 37.3082 -0.5520
v  21.9209 43.3012 -0.5520
v  11.1710 43.3012 -0.5520
v  0.4211 43.3012 -0.5520
v  -10.3288 43.3012 -0.5520
v  -21.0787 43.3012 -0.5520
# 25 vertices

vn 0.0000 0.0000 -1.0000
vn 0.0000 0.0000 -1.0000
vn 0.0000 0.0000 -1.0000
vn 0.0000 0.0000 -1.0000
vn 0.0000 0.0000 -1.0000
vn 0.0000 0.0000 -1.0000
vn 0.0000 0.0000 -1.0000
vn 0.0000 0.0000 -1.0000
vn 0.0000 0.0000 -1.0000
vn 0.0000 0.0000 -1.0000
vn 0.0000 0.0000 -1.0000
vn 0.0000 0.0000 -1.0000
vn 0.0000 0.0000 -1.0000
vn 0.0000 0.0000 -1.0000
vn 0.0000 0.0000 -1.0000
vn 0.0000 0.0000 -1.0000
vn 0.0000 0.0000 -1.0000
vn 0.0000 0.0000 -1.0000
vn 0.0000 0.0000 -1.0000
vn 0.0000 0.0000 -1.0000
vn 0.0000 0.0000 -1.0000
vn 0.0000 0.0000 -1.0000
vn 0.0000 0.0000 -1.0000
vn 0.0000 0.0000 -1.0000
vn 0.0000 0.0000 -1.0000
vn 0.0000 0.0000 -1.0000
vn 0.0000 0.0000 -1.0000
vn 0.0000 0.0000 -1.0000
vn 0.0000 0.0000 -1.0000
vn 0.0000 0.0000 -1.0000
vn 0.0000 0.0000 -1.0000
vn 0.0000 0.0000 -1.0000
vn 0.0000 0.0000 -1.0000
vn 0.0000 0.0000 -1.0000
vn 0.0000 0.0000 -1.0000
vn 0.0000 0.0000 -1.0000
vn 0.0000 0.0000 -1.0000
vn 0.0000 0.0000 -1.0000
vn 0.0000 0.0000 -1.0000
vn 0.0000 0.0000 -1.0000
vn 0.0000 0.0000 -1.0000
vn 0.0000 0.0000 -1.0000
vn 0.0000 0.0000 -1.0000
vn 0.0000 0.0000 -1.0000
vn 0.0000 0.0000 -1.0000
vn 0.0000 0.0000 -1.0000
vn 0.0000 0.0000 -1.0000
vn 0.0000 0.0000 -1.0000
vn 0.0000 0.0000 -1.0000
vn 0.0000 0.0000 -1.0000
vn 0.0000 0.0000 -1.0000
vn 0.0000 0.0000 -1.0000
vn 0.0000 0.0000 -1.0000
vn 0.0000 0.0000 -1.0000
vn 0.0000 0.0000 -1.0000
vn 0.0000 0.0000 -1.0000
vn 0.0000 0.0000 -1.0000
vn 0.0000 0.0000 -1.0000
vn 0.0000 0.0000 -1.0000
vn 0.0000 0.0000 -1.0000
vn 0.0000 0.0000 -1.0000
vn 0.0000 0.0000 -1.0000
vn 0.0000 0.0000 -1.0000
vn 0.0000 0.0000 -1.0000
vn 0.0000 0.0000 -1.0000
vn 0.0000 0.0000 -1.0000
vn 0.0000 0.0000 -1.0000
vn 0.0000 0.0000 -1.0000
vn 0.0000 0.0000 -1.0000
vn 0.0000 0.0000 -1.0000
vn 0.0000 0.0000 -1.0000
vn 0.0000 0.0000 -1.0000
vn 0.0000 0.0000 -1.0000
vn 0.0000 0.0000 -1.0000
vn 0.0000 0.0000 -1.0000
vn 0.0000 0.0000 -1.0000
vn 0.0000 0.0000 -1.0000
vn 0.0000 0.0000 -1.0000
vn 0.0000 0.0000 -1.0000
vn 0.0000 0.0000 -1.0000
vn 0.0000 0.0000 -1.0000
vn 0.0000 0.0000 -1.0000
vn 0.0000 0.0000 -1.0000
vn 0.0000 0.0000 -1.0000
vn 0.0000 0.0000 -1.0000
vn 0.0000 0.0000 -1.0000
vn 0.0000 0.0000 -1.0000
vn 0.0000 0.0000 -1.0000
vn 0.0000 0.0000 -1.0000
vn 0.0000 0.0000 -1.0000
vn 0.0000 0.0000 -1.0000
vn 0.0000 0.0000 -1.0000
vn 0.0000 0.0000 -1.0000
vn 0.0000 0.0000 -1.0000
vn 0.0000 0.0000 -1.0000
vn 0.0000 0.0000 -1.0000
# 96 vertex normals

vt 0.0000 0.0000 0.0000
vt 0.2500 0.0000 0.0000
vt 0.5000 0.0000 0.0000
vt 0.7500 0.0000 0.0000
vt 1.0000 0.0000 0.0000
vt 0.0000 0.0000 0.0000
vt 0.2500 0.0000 0.0000
vt 0.5000 0.0000 0.0000
vt 0.7500 0.0000 0.0000
vt 1.0000 0.0000 0.0000
vt 0.0000 0.0000 0.0000
vt 0.2500 0.0000 0.0000
vt 0.5000 0.0000 0.0000
vt 0.7500 0.0000 0.0000
vt 1.0000 0.0000 0.0000
vt 0.0000 0.2500 0.0000
vt 0.2500 0.2500 0.0000
vt 0.5000 0.2500 0.0000
vt 0.7500 0.2500 0.0000
vt 1.0000 0.2500 0.0000
vt 0.0000 0.5000 0.0000
vt 0.2500 0.5000 0.0000
vt 0.5000 0.5000 0.0000
vt 0.7500 0.5000 0.0000
vt 1.0000 0.5000 0.0000
vt 0.0000 0.7500 0.0000
vt 0.2500 0.7500 0.0000
vt 0.5000 0.7500 0.0000
vt 0.7500 0.7500 0.0000
vt 1.0000 0.7500 0.0000
vt 0.0000 1.0000 0.0000
vt 0.2500 1.0000 0.0000
vt 0.5000 1.0000 0.0000
vt 0.7500 1.0000 0.0000
vt 1.0000 1.0000 0.0000
# 35 texture coords

g Plane002
usemtl 14___Default
f 52/124/253 47/119/254 53/125/255 
f 48/120/256 53/125/257 47/119/258 
f 53/125/259 48/120/260 54/126/261 
f 49/121/262 54/126/263 48/120/264 
f 54/126/265 49/121/266 55/127/267 
f 50/122/268 55/127/269 49/121/270 
f 55/127/271 50/122/272 56/128/273 
f 51/123/274 56/128/275 50/122/276 
f 57/129/277 52/124/278 58/130/279 
f 53/125/280 58/130/281 52/124/282 
f 58/130/283 53/125/284 59/131/285 
f 54/126/286 59/131/287 53/125/288 
f 59/131/289 54/126/290 60/132/291 
f 55/127/292 60/132/293 54/126/294 
f 60/132/295 55/127/296 61/133/297 
f 56/128/298 61/133/299 55/127/300 
f 62/134/301 57/129/302 63/135/303 
f 58/130/304 63/135/305 57/129/306 
f 63/135/307 58/130/308 64/136/309 
f 59/131/310 64/136/311 58/130/312 
f 64/136/313 59/131/314 65/137/315 
f 60/132/316 65/137/317 59/131/318 
f 65/137/319 60/132/320 66/138/321 
f 61/133/322 66/138/323 60/132/324 
f 67/139/325 62/134/326 68/140/327 
f 63/135/328 68/140/329 62/134/330 
f 68/140/331 63/135/332 69/141/333 
f 64/136/334 69/141/335 63/135/336 
f 69/141/337 64/136/338 70/142/339 
f 65/137/340 70/142/341 64/136/342 
f 70/142/343 65/137/344 71/143/345 
f 66/138/346 71/143/347 65/137/348 
# 32 faces

