# Wavefront OBJ exported by MilkShape 3D

mtllib war3_buildingsmall.mtl

v 102.027000 22.755501 106.436996
v 101.119003 12.768600 105.058998
v -53.698200 35.965401 113.278999
v -54.605900 25.978500 111.901001
v 102.347000 21.344601 116.455002
v 102.027000 22.755501 106.436996
v -53.377701 34.554501 123.296997
v -53.698200 35.965401 113.278999
v 2.565510 6.054970 -151.623001
v 1.527280 5.715250 -132.016006
v 5.379920 309.476013 -146.216995
v 4.341710 309.136993 -126.610001
v 22.174200 5.854660 -150.587997
v 2.565510 6.054970 -151.623001
v 24.988701 309.276001 -145.182007
v 5.379920 309.476013 -146.216995
v 83.656700 10.500600 -148.658005
v 73.551498 10.530500 -149.246002
v 83.756104 166.811005 -142.447006
v 73.651001 166.841003 -143.033997
v 83.068298 10.099800 -138.561005
v 83.656700 10.500600 -148.658005
v 83.167801 166.410995 -132.350006
v 83.756104 166.811005 -142.447006
v 100.723000 10.367800 -27.870100
v 90.710403 10.926500 -29.247400
v 108.489998 166.459000 -21.027901
v 98.477501 167.018005 -22.405300
v 99.323997 9.998370 -17.851801
v 100.723000 10.367800 -27.870100
v 107.091003 166.089996 -11.009500
v 108.489998 166.459000 -21.027901
v -50.803501 29.981501 55.354900
v -49.591499 19.939100 55.730900
v -52.729301 23.896900 -100.948997
v -51.517502 13.854500 -100.572998
v -60.852100 28.775400 55.525700
v -50.803501 29.981501 55.354900
v -62.777901 22.690701 -100.778000
v -52.729301 23.896900 -100.948997
v 98.910797 19.695900 44.123699
v 98.003098 9.709190 42.746300
v -56.814301 32.905800 50.965900
v -57.722000 22.919001 49.588501
v 99.231300 18.285200 54.142101
v 98.910797 19.695900 44.123699
v -56.493801 31.495001 60.984100
v -56.814301 32.905800 50.965900
v -86.463799 5.784910 131.893997
v -72.536903 5.784910 131.893997
v -86.463799 221.020996 131.893997
v -72.536903 221.020996 131.893997
v -86.463799 5.784920 117.966003
v -86.463799 5.784910 131.893997
v -86.463799 221.020996 117.967003
v -86.463799 221.020996 131.893997
v -84.261200 10.487900 132.615997
v -74.563103 10.638400 135.511993
v -84.293404 166.716995 124.605003
v -74.595200 166.867004 127.500000
v -81.362000 9.991930 122.931000
v -84.261200 10.487900 132.615997
v -81.394302 166.220993 114.919998
v -84.293404 166.716995 124.605003
v -57.041000 10.172300 -122.077003
v -47.350800 10.577500 -119.180000
v -65.254898 166.289001 -116.442001
v -55.564800 166.695007 -113.543999
v -54.164200 10.673500 -131.768997
v -57.041000 10.172300 -122.077003
v -62.378201 166.789993 -126.133003
v -65.254898 166.289001 -116.442001
v -71.309601 9.844380 11.828900
v -61.609100 10.372200 14.671700
v -82.201500 165.682007 20.058500
v -72.500999 166.210007 22.901300
v -68.505302 10.552500 2.128750
v -71.309601 9.844380 11.828900
v -79.397301 166.389999 10.358300
v -82.201500 165.682007 20.058500
v -63.666599 9.987070 -59.964600
v -53.985001 10.561300 -57.067200
v -74.603897 165.936996 -54.329201
v -64.922302 166.511002 -51.431900
v -60.799000 10.538300 -69.656502
v -63.666599 9.987070 -59.964600
v -71.736198 166.488007 -64.021103
v -74.603897 165.936996 -54.329201
v 21.032801 34.741901 63.841301
v 20.775400 24.748600 62.251801
v -62.910500 16.117201 194.524994
v -63.167900 6.123880 192.936005
v 29.570400 33.673901 69.173203
v 21.032801 34.741901 63.841301
v -54.373001 15.049200 199.856995
v -62.910500 16.117201 194.524994
v -59.121201 338.208008 -79.649002
v -65.949402 365.481995 -87.021004
v -56.516602 364.812988 -80.423798
v -59.121201 338.208008 -79.649002
v -65.987801 338.208008 -84.457001
v -38.639400 193.953995 -90.233200
v -79.848900 193.682999 -89.872902
v -84.461899 319.372009 -90.540901
v -45.193501 319.644012 -89.608398
v -41.031700 194.436996 -37.617901
v -45.411701 319.644012 -37.823101
v -81.848801 194.166000 -37.295300
v -84.680099 319.372009 -38.755501
v -40.832802 333.016998 -33.828701
v -89.526604 332.746002 -35.090099
v -84.680099 319.372009 -38.755501
v -45.411701 319.644012 -37.823101
v -40.347099 333.016998 -93.273804
v -45.193501 319.644012 -89.608398
v -84.461899 319.372009 -90.540901
v -84.680099 319.372009 -38.755501
v -89.526604 332.746002 -35.090099
v -89.040901 332.746002 -94.535301
v -45.193501 319.644012 -89.608398
v -40.347099 333.016998 -93.273804
v -92.450600 -1.560630 -154.807007
v -94.229103 221.082001 -157.315002
v 10.357100 310.243988 -172.031006
v 10.406500 -1.560610 -154.807007
v 105.100998 -1.560640 -154.807007
v 114.686996 221.348999 -157.315002
v -92.450600 -1.560640 130.837997
v 10.406700 -1.560620 134.177002
v 10.101000 310.243988 150.796005
v 113.264000 -1.560620 134.177002
v 114.686996 221.348999 136.164993
v -94.229103 221.082001 136.520996
v -92.450600 -1.560620 -7.944790
v -94.229103 221.082001 136.520996
v -94.229103 221.082001 -8.167730
v -92.450600 -1.560640 130.837997
v -94.229103 221.082001 -157.315002
v -92.450600 -1.560630 -154.807007
v -89.526604 332.088013 -35.090099
v -40.832802 332.359985 -33.828701
v -45.411701 348.309998 -37.823101
v -84.680099 348.039001 -38.755501
v -40.347099 332.359985 -93.273804
v -45.193501 348.309998 -89.608398
v -45.411701 348.309998 -37.823101
v -89.040901 332.088013 -94.535301
v -89.526604 332.088013 -35.090099
v -84.680099 348.039001 -38.755501
v -84.461998 348.039001 -90.540901
v -40.347099 332.359985 -93.273804
v -45.193501 348.309998 -89.608398
v 122.917000 216.970001 150.697006
v 10.357100 310.243988 -172.031006
v 10.101000 310.243988 150.796005
v 123.172997 216.970993 -172.130005
v 10.357100 310.243988 -172.031006
v -102.458000 216.076996 -171.932999
v -102.713997 216.076996 150.893997
v 10.101000 310.243988 150.796005
v 127.424004 195.820007 153.690002
v 127.690002 195.820007 -174.731003
v 123.172997 216.970993 -172.130005
v 122.917000 216.970001 150.697006
v 127.690002 195.820007 -174.731003
v 10.357100 289.075989 -178.371994
v 10.357100 310.243988 -172.031006
v 123.172997 216.970993 -172.130005
v 10.101000 289.075989 157.772995
v 127.424004 195.820007 153.690002
v 122.917000 216.970001 150.697006
v 10.101000 310.243988 150.796005
v 10.357100 289.075989 -178.371994
v -106.966003 194.891006 -173.850998
v -102.458000 216.076996 -171.932999
v 10.357100 310.243988 -172.031006
v -106.966003 194.891006 -173.850998
v -107.232002 194.891006 152.766998
v -102.713997 216.076996 150.893997
v -102.458000 216.076996 -171.932999
v -107.232002 194.891006 152.766998
v 10.101000 289.075989 157.772995
v 10.101000 310.243988 150.796005
v -102.713997 216.076996 150.893997
v -84.680099 348.039001 -38.755501
v -45.411701 348.309998 -37.823101
v -45.193501 348.309998 -89.608398
v -84.461998 348.039001 -90.540901
v -79.848900 193.682999 -89.872902
v -81.848801 194.166000 -37.295300
v -84.680099 319.372009 -38.755501
v -84.461899 319.372009 -90.540901
v -61.572102 338.208008 -71.632599
v -59.121201 338.208008 -79.649002
v -56.516602 364.812988 -80.423798
v -59.895401 364.398987 -69.407501
v -61.589500 338.208008 -44.313801
v -59.138802 338.208008 -52.330101
v -56.534100 364.812988 -53.104900
v -59.912800 364.398987 -42.088600
v 63.211300 217.970993 61.991600
v 126.916000 196.763000 63.304001
v 122.491997 217.322998 68.224800
v 73.929001 237.056000 70.729500
v 126.916000 196.763000 63.304001
v 129.352997 294.989990 -13.701900
v 130.505005 324.803009 -13.540100
v 122.491997 217.322998 68.224800
v 109.584000 216.535995 -75.578903
v 128.692993 305.691010 -12.846100
v 112.839996 216.535995 -13.462600
v 112.223000 216.535995 48.619499
v 113.264000 -1.560630 -7.944760
v 114.686996 221.348999 -157.315002
v 114.686996 221.348999 -8.167690
v 105.100998 -1.560640 -154.807007
v 114.686996 221.348999 136.876999
v 113.264000 -1.560640 134.876999
v -65.987801 338.208008 -84.457001
v -75.157700 365.481995 -80.082001
v -65.949402 365.481995 -87.021004
v -65.987801 338.208008 -84.457001
v -72.682503 338.208008 -79.412300
v -72.682503 338.208008 -79.412300
v -71.416100 364.812988 -69.196098
v -75.157700 365.481995 -80.082001
v -72.682503 338.208008 -79.412300
v -69.953300 338.208008 -71.486298
v -69.953300 338.208008 -71.486298
v -59.895401 364.398987 -69.407501
v -71.416100 364.812988 -69.196098
v -69.953300 338.208008 -71.486298
v -61.572102 338.208008 -71.632599
v -59.895401 364.398987 -69.407501
v -59.895401 364.398987 -69.407501
v -56.516602 364.812988 -80.423798
v -65.949402 365.481995 -87.021004
v -59.895401 364.398987 -69.407501
v -65.949402 365.481995 -87.021004
v -75.157700 365.481995 -80.082001
v -59.895401 364.398987 -69.407501
v -75.157700 365.481995 -80.082001
v -71.416100 364.812988 -69.196098
v -59.138802 338.208008 -52.330101
v -65.966904 365.481995 -59.702202
v -56.534100 364.812988 -53.104900
v -59.138802 338.208008 -52.330101
v -66.005402 338.208008 -57.138100
v -66.005402 338.208008 -57.138100
v -75.175301 365.481995 -52.763000
v -65.966904 365.481995 -59.702202
v -66.005402 338.208008 -57.138100
v -72.700104 338.208008 -52.093300
v -72.700104 338.208008 -52.093300
v -71.433701 364.812988 -41.877300
v -75.175301 365.481995 -52.763000
v -72.700104 338.208008 -52.093300
v -69.971001 338.208008 -44.167400
v -69.971001 338.208008 -44.167400
v -59.912800 364.398987 -42.088600
v -71.433701 364.812988 -41.877300
v -69.971001 338.208008 -44.167400
v -61.589500 338.208008 -44.313801
v -59.912800 364.398987 -42.088600
v -59.912800 364.398987 -42.088600
v -56.534100 364.812988 -53.104900
v -65.966904 365.481995 -59.702202
v -59.912800 364.398987 -42.088600
v -65.966904 365.481995 -59.702202
v -75.175301 365.481995 -52.763000
v -59.912800 364.398987 -42.088600
v -75.175301 365.481995 -52.763000
v -71.433701 364.812988 -41.877300
v 125.404999 218.216003 -94.102203
v 9.768830 309.282990 -9.800620
v 130.505005 324.803009 -13.540100
v 71.210800 237.949997 -91.597504
v 9.768830 309.282990 -9.800620
v 73.929001 237.056000 70.729500
v 122.491997 217.322998 68.224800
v 130.505005 324.803009 -13.540100
v 127.054001 197.684998 -82.237999
v 76.823402 218.899994 -83.546600
v 71.210800 237.949997 -91.597504
v 125.404999 218.216003 -94.102203
v 129.352997 294.989990 -13.701900
v 127.054001 197.684998 -82.237999
v 125.404999 218.216003 -94.102203
v 130.505005 324.803009 -13.540100
# 289 vertices

vt 0.037092 0.893856
vt 0.009678 0.895239
vt 0.033708 0.568123
vt 0.006475 0.570051
vt 0.758491 0.175822
vt 0.827715 0.136361
vt 0.827272 0.176435
vt 0.758934 0.135748
vt 0.884426 0.196753
vt 0.759845 0.196753
vt 0.759845 0.500760
vt 0.884426 0.500760
vt 0.878160 0.153360
vt 0.758143 0.153363
vt 0.758041 0.115190
vt 0.877969 0.115267
vt 0.787119 0.558594
vt 0.787119 0.875358
vt 0.997283 0.996094
vt 0.999698 0.558594
vt 0.768129 0.564755
vt 0.562481 0.877774
vt 0.768129 0.877774
vt 0.562481 0.564755
vt 0.877953 0.191129
vt 0.758244 0.191129
vt 0.181178 0.003906
vt 0.001491 0.496094
vt 0.001491 0.003906
vt 0.181178 0.496094
vt 0.000732 0.006523
vt 0.000732 0.498308
vt 0.028184 0.498308
vt 0.028184 0.006523
vt 0.000732 0.321979
vt 0.028184 0.321979
vt 0.876286 0.036918
vt 0.876938 0.113384
vt 0.757970 0.113384
vt 0.757970 0.036918
vt 0.574872 0.759915
vt 0.772947 0.991785
vt 0.772947 0.759915
vt 0.572471 0.759916
vt 0.819881 0.078540
vt 0.799502 0.106050
vt 0.765543 0.097390
vt 0.760955 0.054255
vt 0.804090 0.044066
vt 0.001491 0.184500
vt 0.181178 0.184500
# 51 texture coordinates

vn -0.031656 0.139441 -0.989724
vn 0.089674 0.986630 0.136089
vn -0.998558 0.010201 -0.052699
vn 0.052878 0.017299 -0.998451
vn 0.058161 0.039600 -0.997522
vn 0.998309 -0.002942 0.058060
vn 0.138182 0.036509 -0.989734
vn 0.989157 -0.055186 0.136096
vn 0.992729 0.119179 -0.016871
vn -0.119712 0.992114 -0.037147
vn 0.000000 0.000000 1.000000
vn -1.000000 0.000000 0.000000
vn -0.286484 0.049005 0.956831
vn -0.958101 -0.014866 -0.286046
vn -0.284183 -0.049512 0.957491
vn -0.957325 -0.040036 -0.286226
vn -0.277032 -0.069970 0.958310
vn -0.958331 -0.052149 -0.280859
vn -0.283313 -0.054469 0.957479
vn -0.956481 -0.056738 -0.286226
vn -0.843450 0.105507 -0.526745
vn 0.025429 0.987265 0.157036
vn 0.567527 -0.079426 -0.819515
vn 0.569688 -0.078504 -0.818103
vn 0.571844 -0.077581 -0.816686
vn 0.459850 0.023782 -0.887678
vn -0.008706 -0.005634 -0.999946
vn 0.007497 0.000286 -0.999972
vn 0.904092 0.041596 -0.425309
vn 0.885357 0.039161 0.463259
vn 0.440484 0.021500 0.897503
vn -0.007962 0.006518 0.999947
vn -0.023813 0.011120 0.999655
vn 0.391196 -0.381043 0.837718
vn -0.023405 -0.272130 0.961976
vn -0.022131 -0.275853 0.960945
vn 0.808896 -0.410010 0.421402
vn 0.942950 -0.332883 0.005844
vn 0.940506 -0.339755 0.003963
vn -0.808462 -0.410077 -0.422169
vn -0.940511 -0.339739 -0.003963
vn -0.942956 -0.332867 -0.005844
vn -0.388686 -0.381403 -0.838722
vn 0.025581 -0.275728 -0.960895
vn 0.026432 -0.273147 -0.961609
vn -0.064709 -0.033757 -0.997333
vn -0.129117 -0.012201 -0.991554
vn -0.000834 -0.034920 -0.999390
vn -0.000000 -0.055156 -0.998478
vn 0.063034 -0.035941 -0.997364
vn 0.125794 -0.016570 -0.991918
vn -0.072994 -0.039779 0.996539
vn -0.016202 -0.053233 0.998451
vn -0.003862 -0.035741 0.999354
vn 0.065390 -0.031524 0.997362
vn 0.130469 -0.009675 0.991405
vn -0.113454 -0.026258 0.993196
vn -0.999968 -0.007988 -0.000000
vn -0.025585 0.233346 0.972057
vn 0.830517 0.351939 0.431719
vn -0.024689 0.231006 0.972639
vn 0.957276 0.289070 0.007822
vn 0.959109 0.282975 0.005935
vn 0.960900 0.276867 0.004049
vn -0.830805 0.351872 -0.431218
vn -0.957279 0.289060 -0.007822
vn -0.959113 0.282962 -0.005934
vn -0.402002 0.326404 -0.855485
vn 0.022680 0.233262 -0.972149
vn 0.021516 0.230121 -0.972924
vn 0.637197 0.770701 0.000507
vn -0.640805 0.767704 -0.000508
vn 0.977992 0.208640 0.000784
vn 0.185774 0.213131 -0.959199
vn 0.249637 0.277872 -0.927614
vn 0.120189 0.146414 -0.981895
vn 0.212303 0.239187 0.947479
vn 0.171938 0.173857 0.969645
vn 0.251312 0.302989 0.919261
vn -0.183763 0.199086 -0.962598
vn -0.132016 0.117200 -0.984295
vn -0.233700 0.279011 -0.931417
vn -0.978055 0.208344 -0.000786
vn -0.185882 0.205490 0.960844
vn -0.280117 0.300503 0.911719
vn -0.087870 0.106301 0.990444
vn -0.006900 0.999976 -0.000029
vn -0.999333 -0.029870 -0.021003
vn -0.999020 -0.023032 -0.037788
vn -0.999317 -0.036699 -0.004211
vn 0.953145 -0.085204 0.290266
vn 0.952859 -0.084800 0.291323
vn 0.953431 -0.085607 0.289209
vn -0.102767 -0.310145 0.945118
vn -0.103910 -0.252597 0.961976
vn -0.101254 -0.366578 0.924861
vn 0.990075 0.050872 0.131007
vn 0.999105 -0.038512 -0.017506
vn 0.951218 0.138724 0.275572
vn 0.983309 -0.174490 -0.051543
vn 0.984366 -0.174890 -0.020889
vn 0.984498 -0.175125 0.009784
vn 0.999781 -0.015674 -0.013867
vn 0.999303 -0.024966 -0.027738
vn 0.999980 -0.006384 0.000000
vn 0.997513 -0.043521 -0.055444
vn -0.600167 -0.074028 -0.796442
vn -0.944289 -0.077845 0.319778
vn -0.943400 -0.078802 0.322159
vn -0.942504 -0.079758 0.324537
vn 0.015230 -0.084923 0.996271
vn 0.017389 -0.085744 0.996165
vn 0.036687 0.998136 0.048763
vn 0.089130 0.735210 -0.671954
vn -0.102010 0.602931 -0.791245
vn 0.274186 0.817302 -0.506793
vn 0.157845 0.744187 0.649054
vn 0.355899 0.818661 0.450700
vn -0.053486 0.607115 0.792812
vn -0.188616 -0.462914 -0.866103
vn -0.155422 -0.423053 -0.892676
vn -0.221170 -0.501202 -0.836589
vn 0.998912 -0.002603 -0.046565
vn 0.996176 0.033344 -0.080757
vn 0.999182 -0.038543 -0.012260
# 125 normals

g Mesh01
usemtl Material01
s 1
f 1/1/1 2/2/1 3/3/1
f 4/4/1 3/3/1 2/2/1
f 5/1/2 6/2/2 7/3/2
f 8/4/2 7/3/2 6/2/2
f 9/1/3 10/2/3 11/3/3
f 12/4/3 11/3/3 10/2/3
f 13/1/4 14/2/4 15/3/4
f 16/4/4 15/3/4 14/2/4
f 17/1/5 18/2/5 19/3/5
f 20/4/5 19/3/5 18/2/5
f 21/1/6 22/2/6 23/3/6
f 24/4/6 23/3/6 22/2/6
f 25/1/7 26/2/7 27/3/7
f 28/4/7 27/3/7 26/2/7
f 29/1/8 30/2/8 31/3/8
f 32/4/8 31/3/8 30/2/8
f 33/1/9 34/2/9 35/3/9
f 36/4/9 35/3/9 34/2/9
f 37/1/10 38/2/10 39/3/10
f 40/4/10 39/3/10 38/2/10
f 41/1/1 42/2/1 43/3/1
f 44/4/1 43/3/1 42/2/1
f 45/1/2 46/2/2 47/3/2
f 48/4/2 47/3/2 46/2/2
f 49/1/11 50/2/11 51/3/11
f 52/4/11 51/3/11 50/2/11
f 53/1/12 54/2/12 55/3/12
f 56/4/12 55/3/12 54/2/12
f 57/1/13 58/2/13 59/3/13
f 60/4/13 59/3/13 58/2/13
f 61/1/14 62/2/14 63/3/14
f 64/4/14 63/3/14 62/2/14
f 65/1/15 66/2/15 67/3/15
f 68/4/15 67/3/15 66/2/15
f 69/1/16 70/2/16 71/3/16
f 72/4/16 71/3/16 70/2/16
f 73/1/17 74/2/17 75/3/17
f 76/4/17 75/3/17 74/2/17
f 77/1/18 78/2/18 79/3/18
f 80/4/18 79/3/18 78/2/18
f 81/1/19 82/2/19 83/3/19
f 84/4/19 83/3/19 82/2/19
f 85/1/20 86/2/20 87/3/20
f 88/4/20 87/3/20 86/2/20
f 89/1/21 90/2/21 91/3/21
f 92/4/21 91/3/21 90/2/21
f 93/1/22 94/2/22 95/3/22
f 96/4/22 95/3/22 94/2/22
# 48 triangles in group

g Mesh02
usemtl Material01
f 97/5/23 98/6/24 99/7/23
f 100/5/25 101/8/25 98/6/24
f 102/9/26 103/10/27 104/11/28
f 104/11/28 105/12/29 102/9/26
f 106/10/30 102/9/26 105/12/29
f 105/12/29 107/11/31 106/10/30
f 108/9/32 106/10/30 107/11/31
f 107/11/31 109/12/33 108/9/32
f 110/13/34 111/14/35 112/15/36
f 112/15/36 113/16/37 110/13/34
f 114/14/38 110/13/34 113/16/37
f 113/16/37 115/15/39 114/14/38
f 116/15/40 117/16/41 118/13/42
f 118/13/42 119/14/43 116/15/40
f 120/16/44 116/15/40 119/14/43
f 119/14/43 121/13/45 120/16/44
f 122/17/46 123/18/47 124/19/48
f 124/19/48 125/20/49 122/17/46
f 124/19/48 126/17/50 125/20/49
f 126/17/50 124/19/48 127/18/51
f 128/17/52 129/20/53 130/19/54
f 131/17/55 130/19/54 129/20/53
f 130/19/54 131/17/55 132/18/56
f 130/19/54 133/18/57 128/17/52
f 134/21/58 135/22/58 136/23/58
f 135/22/58 134/21/58 137/24/58
f 138/22/58 139/24/58 134/21/58
f 134/21/58 136/23/58 138/22/58
f 140/14/59 141/13/60 142/25/59
f 142/25/59 143/26/61 140/14/59
f 141/13/60 144/14/62 145/26/63
f 145/26/63 146/25/64 141/13/60
f 147/14/65 148/13/66 149/25/67
f 149/25/67 150/26/68 147/14/65
f 151/13/69 147/14/65 150/26/68
f 150/26/68 152/25/70 151/13/69
f 153/27/71 154/28/71 155/29/71
f 154/28/71 153/27/71 156/30/71
f 157/28/72 158/30/72 159/27/72
f 159/27/72 160/29/72 157/28/72
f 161/31/73 162/32/73 163/33/73
f 163/33/73 164/34/73 161/31/73
f 165/31/74 166/35/75 167/36/74
f 167/36/74 168/34/76 165/31/74
f 169/31/77 170/35/78 171/36/77
f 171/36/77 172/34/79 169/31/77
f 173/31/80 174/35/81 175/36/80
f 175/36/80 176/34/82 173/31/80
f 177/31/83 178/32/83 179/33/83
f 179/33/83 180/34/83 177/31/83
f 181/31/84 182/35/85 183/36/84
f 183/36/84 184/34/86 181/31/84
f 185/37/87 186/38/87 187/39/87
f 187/39/87 188/40/87 185/37/87
f 189/9/88 190/10/89 191/11/88
f 191/11/88 192/12/90 189/9/88
f 193/5/91 194/8/92 195/6/91
f 193/5/91 195/6/91 196/7/93
f 197/5/91 198/8/92 199/6/91
f 197/5/91 199/6/91 200/7/93
f 201/31/94 202/32/95 203/33/94
f 203/33/94 204/34/96 201/31/94
f 205/31/97 206/35/98 207/36/97
f 207/36/97 208/34/99 205/31/97
f 209/41/100 210/42/101 211/43/101
f 211/43/101 210/42/101 212/44/102
f 213/21/103 214/22/104 215/23/105
f 214/22/104 213/21/103 216/24/106
f 217/22/105 218/24/105 213/21/103
f 213/21/103 215/23/105 217/22/105
f 219/5/107 220/6/107 221/7/107
f 222/5/107 223/8/107 220/6/107
f 224/5/108 225/6/109 226/7/108
f 227/5/110 228/8/110 225/6/109
f 229/5/111 230/6/111 231/7/111
f 232/5/112 233/8/112 234/6/112
f 235/45/113 236/46/113 237/47/113
f 238/45/113 239/47/113 240/48/113
f 241/45/113 242/48/113 243/49/113
f 244/5/23 245/6/24 246/7/23
f 247/5/25 248/8/25 245/6/24
f 249/5/107 250/6/107 251/7/107
f 252/5/107 253/8/107 250/6/107
f 254/5/108 255/6/109 256/7/108
f 257/5/110 258/8/110 255/6/109
f 259/5/111 260/6/111 261/7/111
f 262/5/112 263/8/112 264/6/112
f 265/45/113 266/46/113 267/47/113
f 268/45/113 269/47/113 270/48/113
f 271/45/113 272/48/113 273/49/113
f 274/27/114 275/50/114 276/29/115
f 275/50/114 274/27/114 277/51/116
f 278/50/117 279/51/118 280/27/117
f 280/27/117 281/29/119 278/50/117
f 282/31/120 283/32/121 284/33/120
f 284/33/120 285/34/122 282/31/120
f 286/31/123 287/35/124 288/36/123
f 288/36/123 289/34/125 286/31/123
# 98 triangles in group

# 146 triangles total

